<svg width="100" height="100" viewBox="0 0 100 100" fill="none" xmlns="http://www.w3.org/2000/svg">
<circle cx="50" cy="50" r="49.5" fill="white" stroke="black"/>
<path fill-rule="evenodd" clip-rule="evenodd" d="M35.0669 17.0545V21.609H39.6012H44.1353L44.2579 20.9561C44.3253 20.597 44.3278 20.0641 44.2637 19.7719L44.1469 19.2407H40.9673H37.7876L37.8391 17.1911L37.8907 15.1416L41.0788 15.0505L44.267 14.9594L44.3209 13.7297L44.3746 12.5H39.7209H35.0669V17.0545ZM45.269 15.2327V17.9654H48.5482H51.8274V18.6941V19.4228H48.5482H45.269V20.5159V21.609H50.0104H54.7518L54.7015 18.8308L54.6512 16.0525L51.2354 16.003L47.8195 15.9534V15.5298C47.8195 15.1185 47.8792 15.1028 49.869 14.988C50.9963 14.9232 52.554 14.8696 53.3304 14.8692L54.7423 14.8683V13.6842V12.5H50.0056H45.269V15.2327ZM55.6532 15.2327V17.9654H58.8414H62.0295V18.6941V19.4228H58.8414H55.6532V20.5159V21.609H60.2897H64.9262L64.9808 20.5615C65.0109 19.9852 65.0096 18.7643 64.9779 17.8481L64.9203 16.1822L61.562 16.0496L58.2037 15.9171V15.4837V15.0505H61.5502H64.8967L65.0001 14.4129C65.0572 14.0622 65.0572 13.4883 65.0001 13.1376L64.8967 12.5H60.2749H55.6532V15.2327ZM25.1106 26.4823C25.1714 26.9582 25.4702 30.217 25.7746 33.724C26.0791 37.2309 26.734 44.6092 27.2301 50.1201C27.7261 55.6311 28.4212 63.5013 28.7748 67.6094C29.5345 76.4382 29.5377 76.4601 30.148 76.6448C30.3985 76.7206 34.2926 77.8206 38.8016 79.0893C43.3105 80.358 47.4039 81.5117 47.8982 81.6533C49.6599 82.1578 50.7699 82.0104 55.7113 80.616C58.2343 79.9038 60.5448 79.2589 60.8453 79.1828C61.1459 79.1066 62.9905 78.5878 64.9444 78.0297C66.8983 77.4715 68.8926 76.9164 69.3763 76.796C70.4067 76.5393 70.4921 76.3816 70.6506 74.4412C70.7652 73.0371 72.3387 55.1949 72.9641 48.2073C73.1569 46.053 73.642 40.5603 74.0423 36.0012C74.4423 31.4422 74.8216 27.2405 74.885 26.6645L75 25.617H50H25L25.1106 26.4823ZM66.5079 36.8666C66.4403 37.643 66.3188 39.1316 66.2381 40.1742C66.1233 41.6555 66.0214 42.1208 65.7719 42.3034C65.5962 42.4318 64.6618 42.882 63.6954 43.3039C62.7291 43.7258 61.5285 44.2556 61.0275 44.4811C60.5265 44.7069 58.5768 45.5531 56.6947 46.3616C54.8126 47.1701 53.132 47.9136 52.9601 48.014C52.7471 48.138 54.6955 48.198 59.0691 48.2018L65.4909 48.2073L65.4897 48.7993C65.488 49.5022 65.0646 55.0629 64.6817 59.4113C64.5316 61.1147 64.3115 63.6561 64.1927 65.0589C64.0739 66.4617 63.9198 67.675 63.8502 67.7552C63.7535 67.8667 59.9581 68.9364 57.2928 69.6034C57.1425 69.6409 55.4512 70.0789 53.5345 70.5764L50.0492 71.4809L44.7898 70.1415C41.897 69.4048 38.8335 68.6249 37.9818 68.4083C37.1301 68.1917 36.3675 67.9559 36.2873 67.8845C36.0212 67.6479 35.2491 60.8453 35.2491 58.7373V58.2272H38.3254H41.4018L41.5086 59.0014C41.5673 59.4272 41.6696 60.5749 41.7363 61.5516L41.8575 63.3276L42.5157 63.4978C42.8777 63.5914 44.3626 63.8902 45.8155 64.1617C47.2684 64.4331 48.7754 64.7166 49.1643 64.7915C49.6774 64.8902 50.1024 64.837 50.7129 64.5973C51.4877 64.293 54.8642 63.2737 56.7008 62.7895C57.3508 62.6182 57.475 62.5124 57.475 62.13C57.475 61.1754 57.8496 55.3844 57.9367 54.9947L58.0278 54.5863L46.4121 54.5393L34.7964 54.4925L34.5792 52.4885C34.4599 51.3863 34.3568 49.9454 34.3502 49.2867L34.3382 48.0888L40.3957 45.4753C43.7272 44.0379 47.0461 42.6094 47.771 42.3008C48.4957 41.9924 49.09 41.6792 49.0918 41.6052C49.0935 41.5311 45.5902 41.4491 41.3066 41.4231L33.5184 41.3755L33.2121 39.0072C33.0438 37.7046 32.9004 36.4142 32.8933 36.1397L32.8807 35.6405L41.4887 35.5913C46.223 35.5642 53.817 35.5224 58.3639 35.4984L66.631 35.4547L66.5079 36.8666Z" fill="black"/>
</svg>
