<svg width="100" height="100" viewBox="0 0 100 100" fill="none" xmlns="http://www.w3.org/2000/svg">
<circle cx="50" cy="50" r="49.5" fill="white" stroke="black"/>
<path d="M22.1605 68V31.6364H36.5071C39.2652 31.6364 41.6148 32.1631 43.5561 33.2166C45.4974 34.2583 46.977 35.7083 47.995 37.5668C49.0249 39.4134 49.5398 41.544 49.5398 43.9588C49.5398 46.3736 49.0189 48.5043 47.9773 50.3509C46.9356 52.1974 45.4264 53.6357 43.4496 54.6655C41.4846 55.6953 39.1054 56.2102 36.3118 56.2102H27.1676V50.049H35.0689C36.5485 50.049 37.7678 49.7945 38.7266 49.2855C39.6972 48.7647 40.4193 48.0485 40.8928 47.1371C41.3781 46.2138 41.6207 45.1544 41.6207 43.9588C41.6207 42.7514 41.3781 41.6979 40.8928 40.7983C40.4193 39.8868 39.6972 39.1825 38.7266 38.6854C37.7559 38.1764 36.5249 37.9219 35.0334 37.9219H29.8487V68H22.1605ZM77.0833 48.5043L70.1586 48.9304C70.0402 48.3385 69.7857 47.8059 69.3951 47.3324C69.0044 46.8471 68.4895 46.4624 67.8503 46.1783C67.223 45.8823 66.4713 45.7344 65.5953 45.7344C64.4235 45.7344 63.4351 45.983 62.6301 46.4801C61.8252 46.9654 61.4228 47.6165 61.4228 48.4332C61.4228 49.0843 61.6832 49.6347 62.204 50.0845C62.7248 50.5343 63.6185 50.8954 64.8851 51.1676L69.8212 52.1619C72.4727 52.7064 74.4495 53.5824 75.7516 54.7898C77.0537 55.9972 77.7047 57.5833 77.7047 59.5483C77.7047 61.3357 77.178 62.9041 76.1245 64.2536C75.0828 65.603 73.6505 66.6565 71.8276 67.4141C70.0165 68.1598 67.9273 68.5327 65.5598 68.5327C61.9495 68.5327 59.0731 67.781 56.9306 66.2777C54.7999 64.7625 53.5511 62.7029 53.1841 60.0987L60.6238 59.7081C60.8487 60.8089 61.3932 61.6494 62.2573 62.2294C63.1214 62.7976 64.2282 63.0817 65.5776 63.0817C66.9034 63.0817 67.9687 62.8272 68.7736 62.3182C69.5904 61.7973 70.0047 61.1286 70.0165 60.3118C70.0047 59.6252 69.7147 59.063 69.1465 58.625C68.5783 58.1752 67.7024 57.8319 66.5186 57.5952L61.7956 56.6541C59.1323 56.1214 57.1496 55.1982 55.8475 53.8842C54.5572 52.5703 53.9121 50.8954 53.9121 48.8594C53.9121 47.1075 54.3856 45.5982 55.3326 44.3317C56.2914 43.0651 57.6349 42.0885 59.3631 41.402C61.1032 40.7154 63.1391 40.3722 65.4711 40.3722C68.9157 40.3722 71.6264 41.1001 73.6032 42.5561C75.5918 44.0121 76.7518 45.9948 77.0833 48.5043Z" fill="black"/>
</svg>
