<svg width="100" height="100" viewBox="0 0 100 100" fill="none" xmlns="http://www.w3.org/2000/svg">
<circle cx="50" cy="50" r="49.5" fill="white" stroke="black"/>
<path d="M32.4283 68H24.1896L36.7429 31.6364H46.6506L59.1861 68H50.9474L41.8388 39.946H41.5547L32.4283 68ZM31.9134 53.7067H51.3736V59.7081H31.9134V53.7067ZM63.5673 68V40.7273H71.1312V68H63.5673ZM67.367 37.2116C66.2425 37.2116 65.2778 36.8388 64.4728 36.093C63.6797 35.3355 63.2832 34.4299 63.2832 33.3764C63.2832 32.3348 63.6797 31.4411 64.4728 30.6953C65.2778 29.9377 66.2425 29.5589 67.367 29.5589C68.4915 29.5589 69.4503 29.9377 70.2434 30.6953C71.0484 31.4411 71.4508 32.3348 71.4508 33.3764C71.4508 34.4299 71.0484 35.3355 70.2434 36.093C69.4503 36.8388 68.4915 37.2116 67.367 37.2116Z" fill="black"/>
</svg>
