<svg width="100" height="100" viewBox="0 0 100 100" fill="none" xmlns="http://www.w3.org/2000/svg">
<circle cx="50" cy="50" r="49.5" fill="white" stroke="black"/>
<path fill-rule="evenodd" clip-rule="evenodd" d="M30.9258 20.6391V25.2068H32.3891H33.852L33.9416 23.6623C34.0377 21.9997 34.3663 21.7262 35.8286 22.0919C36.4662 22.2516 36.5446 22.4317 36.5446 23.7389V25.2068H38.0232H39.5018V20.6391V16.0713H38.0232H36.5446V17.5448V19.0182H35.2138H33.8831V17.5448V16.0713H32.4044H30.9258V20.6391ZM40.9804 17.5448V19.0182H42.153H43.3255L43.4098 22.0389L43.4941 25.0595L45.0466 25.1485L46.5992 25.2378V22.1279V19.0182H47.9299H49.2607V17.5448V16.0713H45.1206H40.9804V17.5448ZM50.4436 20.6391V25.2068H51.9092H53.3748L53.4617 23.0703L53.5487 20.9338L54.4358 22.333C54.9238 23.1027 55.3895 23.7322 55.4709 23.7322C55.5522 23.7322 56.018 23.1027 56.5059 22.333L57.3931 20.9338L57.48 23.0703L57.567 25.2068H59.0326H60.4982V20.6391V16.0713H58.9338H57.3694L56.5059 17.5448C56.031 18.3552 55.5652 19.0182 55.4709 19.0182C55.3765 19.0182 54.9108 18.3552 54.4358 17.5448L53.5723 16.0713H52.008H50.4436V20.6391ZM61.9768 20.6482V25.2251L65.5994 25.1423L69.222 25.0595V23.586V22.1125L67.078 22.0259L64.934 21.9392V19.0053V16.0713H63.4554H61.9768V20.6482ZM26.7866 30.4377C26.7872 31.0456 26.9847 33.5983 27.2257 36.1105C27.7004 41.0611 28.3678 48.5449 29.7483 64.4012C30.235 69.993 30.7108 75.1089 30.8055 75.7699L30.9779 76.972L33.8352 77.7267C35.4066 78.1419 39.6639 79.3054 43.2959 80.3121L49.8994 82.1427L51.7241 81.6703C52.7274 81.4104 55.6779 80.6026 58.2802 79.875C60.8826 79.1474 64.3426 78.2018 65.9691 77.7736C67.5955 77.3454 68.9591 76.9685 68.9996 76.9363C69.1046 76.8527 69.5151 72.5233 70.8588 57.3285C71.5112 49.9538 72.3079 41.123 72.6296 37.7042C72.9511 34.2858 73.2143 31.0035 73.2143 30.4105V29.3325H50H26.7857L26.7866 30.4377ZM64.795 40.752C64.6927 41.8462 64.5375 43.2386 64.4499 43.8463L64.2905 44.9514H53.0524H41.8144L42.0246 47.5299C42.1403 48.9483 42.2931 50.2081 42.3644 50.3295C42.4357 50.451 47.2767 50.5506 53.1225 50.5506H63.7511L63.7476 51.361C63.7437 52.1764 63.1209 59.3658 62.5792 64.8433C62.4189 66.4641 62.2843 68.0781 62.2802 68.43C62.2743 68.9115 62.035 69.119 61.3114 69.2699C60.783 69.3801 58.0564 70.1127 55.2526 70.8981L50.1552 72.3258L45.6416 71.0601C43.1593 70.3638 40.4144 69.6129 39.5417 69.391C38.6691 69.1691 37.9076 68.8508 37.8499 68.6834C37.6541 68.1173 36.9595 59.6655 37.0976 59.5278C37.173 59.453 38.5265 59.3914 40.1057 59.3914H42.9766L43.1614 60.3123C43.2631 60.8189 43.3462 61.7973 43.3462 62.4866C43.3462 63.1756 43.5127 63.874 43.7159 64.0382C43.9193 64.2023 45.3876 64.6882 46.9792 65.1176L49.8728 65.8989L53.0196 64.9997C54.7505 64.5055 56.1986 64.0688 56.2377 64.0299C56.3436 63.9247 56.9495 58.3567 56.9495 57.4915V56.7468L46.821 56.6693L36.6924 56.5918L36.0575 49.2244C35.7083 45.1724 35.3519 41.161 35.2656 40.3099L35.1088 38.7628H50.0449H64.981L64.795 40.752Z" fill="black"/>
</svg>
