<svg width="100" height="100" viewBox="0 0 100 100" fill="none" xmlns="http://www.w3.org/2000/svg">
<circle cx="50" cy="50" r="49.5" fill="white" stroke="black"/>
<path d="M30.4733 60.4545C30.4222 60.0227 30.2148 59.6875 29.8511 59.4489C29.4875 59.2102 29.0415 59.0909 28.5131 59.0909C28.1267 59.0909 27.7886 59.1534 27.4989 59.2784C27.2119 59.4034 26.9875 59.5753 26.8256 59.794C26.6665 60.0128 26.5869 60.2614 26.5869 60.5398C26.5869 60.7727 26.6423 60.973 26.7531 61.1406C26.8668 61.3054 27.0116 61.4432 27.1878 61.554C27.3639 61.6619 27.5486 61.7514 27.7418 61.8224C27.9349 61.8906 28.1125 61.946 28.2744 61.9886L29.1608 62.2273C29.3881 62.2869 29.6409 62.3693 29.9193 62.4744C30.2006 62.5795 30.469 62.723 30.7247 62.9048C30.9832 63.0838 31.1963 63.3139 31.3639 63.5952C31.5315 63.8764 31.6153 64.2216 31.6153 64.6307C31.6153 65.1023 31.4918 65.5284 31.2446 65.9091C31.0003 66.2898 30.6423 66.5923 30.1707 66.8168C29.702 67.0412 29.1324 67.1534 28.4619 67.1534C27.8369 67.1534 27.2957 67.0526 26.8384 66.8509C26.3838 66.6491 26.0259 66.3679 25.7645 66.0071C25.506 65.6463 25.3597 65.2273 25.3256 64.75H26.4165C26.4449 65.0795 26.5557 65.3523 26.7489 65.5682C26.9449 65.7812 27.192 65.9403 27.4903 66.0455C27.7915 66.1477 28.1153 66.1989 28.4619 66.1989C28.8653 66.1989 29.2276 66.1335 29.5486 66.0028C29.8696 65.8693 30.1239 65.6847 30.3114 65.4489C30.4989 65.2102 30.5926 64.9318 30.5926 64.6136C30.5926 64.3239 30.5116 64.0881 30.3497 63.9062C30.1878 63.7244 29.9747 63.5767 29.7105 63.4631C29.4463 63.3494 29.1608 63.25 28.854 63.1648L27.7801 62.858C27.0983 62.6619 26.5585 62.3821 26.1608 62.0185C25.7631 61.6548 25.5642 61.179 25.5642 60.5909C25.5642 60.1023 25.6963 59.6761 25.9605 59.3125C26.2276 58.946 26.5855 58.6619 27.0344 58.4602C27.4861 58.2557 27.9903 58.1534 28.5472 58.1534C29.1097 58.1534 29.6097 58.2543 30.0472 58.456C30.4847 58.6548 30.8312 58.9276 31.0869 59.2741C31.3455 59.6207 31.4818 60.0142 31.496 60.4545H30.4733ZM33.9556 59.2102V58.2727H40.5011V59.2102H37.7568V67H36.7V59.2102H33.9556ZM48.9394 58.2727H49.9962V64.0511C49.9962 64.6477 49.8556 65.1804 49.5743 65.6491C49.2959 66.1151 48.9025 66.483 48.3939 66.7528C47.8854 67.0199 47.2888 67.1534 46.6042 67.1534C45.9195 67.1534 45.3229 67.0199 44.8144 66.7528C44.3059 66.483 43.911 66.1151 43.6297 65.6491C43.3513 65.1804 43.2121 64.6477 43.2121 64.0511V58.2727H44.2689V63.9659C44.2689 64.392 44.3627 64.7713 44.5502 65.1037C44.7377 65.4332 45.0047 65.6932 45.3513 65.8835C45.7008 66.071 46.1184 66.1648 46.6042 66.1648C47.09 66.1648 47.5076 66.071 47.857 65.8835C48.2064 65.6932 48.4735 65.4332 48.6582 65.1037C48.8457 64.7713 48.9394 64.392 48.9394 63.9659V58.2727ZM55.8798 67H53.1867V58.2727H55.9992C56.8458 58.2727 57.5702 58.4474 58.1725 58.7969C58.7747 59.1435 59.2364 59.642 59.5574 60.2926C59.8784 60.9403 60.0389 61.7159 60.0389 62.6193C60.0389 63.5284 59.877 64.3111 59.5531 64.9673C59.2293 65.6207 58.7577 66.1236 58.1384 66.4759C57.519 66.8253 56.7662 67 55.8798 67ZM54.2435 66.0625H55.8117C56.5333 66.0625 57.1313 65.9233 57.6057 65.6449C58.0801 65.3665 58.4338 64.9702 58.6668 64.456C58.8997 63.9418 59.0162 63.3295 59.0162 62.6193C59.0162 61.9148 58.9012 61.3082 58.671 60.7997C58.4409 60.2884 58.0972 59.8963 57.6398 59.6236C57.1824 59.348 56.6128 59.2102 55.931 59.2102H54.2435V66.0625ZM63.9485 58.2727V67H62.8917V58.2727H63.9485ZM74.5111 62.6364C74.5111 63.5568 74.3449 64.3523 74.0125 65.0227C73.6801 65.6932 73.2241 66.2102 72.6446 66.5739C72.0651 66.9375 71.4031 67.1193 70.6588 67.1193C69.9145 67.1193 69.2526 66.9375 68.673 66.5739C68.0935 66.2102 67.6375 65.6932 67.3051 65.0227C66.9727 64.3523 66.8065 63.5568 66.8065 62.6364C66.8065 61.7159 66.9727 60.9205 67.3051 60.25C67.6375 59.5795 68.0935 59.0625 68.673 58.6989C69.2526 58.3352 69.9145 58.1534 70.6588 58.1534C71.4031 58.1534 72.0651 58.3352 72.6446 58.6989C73.2241 59.0625 73.6801 59.5795 74.0125 60.25C74.3449 60.9205 74.5111 61.7159 74.5111 62.6364ZM73.4884 62.6364C73.4884 61.8807 73.3619 61.2429 73.1091 60.723C72.8591 60.2031 72.5196 59.8097 72.0906 59.5426C71.6645 59.2756 71.1872 59.142 70.6588 59.142C70.1304 59.142 69.6517 59.2756 69.2227 59.5426C68.7966 59.8097 68.4571 60.2031 68.2043 60.723C67.9543 61.2429 67.8293 61.8807 67.8293 62.6364C67.8293 63.392 67.9543 64.0298 68.2043 64.5497C68.4571 65.0696 68.7966 65.4631 69.2227 65.7301C69.6517 65.9972 70.1304 66.1307 70.6588 66.1307C71.1872 66.1307 71.6645 65.9972 72.0906 65.7301C72.5196 65.4631 72.8591 65.0696 73.1091 64.5497C73.3619 64.0298 73.4884 63.392 73.4884 62.6364Z" fill="black"/>
<path d="M61.3064 27L38 50.3064" stroke="url(#paint0_linear_60_10)" stroke-width="1.01465"/>
<defs>
<linearGradient id="paint0_linear_60_10" x1="32.5525" y1="54.9077" x2="81.0691" y2="9.71752" gradientUnits="userSpaceOnUse">
<stop stop-color="#070707"/>
<stop offset="1" stop-opacity="0"/>
</linearGradient>
</defs>
</svg>
