<?xml version="1.0" encoding="UTF-8"?>
<svg id="_レイヤー_2" data-name="レイヤー 2" xmlns="http://www.w3.org/2000/svg" viewBox="0 0 588.18 117">
  <defs>
    <style>
      .cls-1 {
        fill: #330;
      }

      .cls-2 {
        fill: #fff;
      }
    </style>
  </defs>
  <g id="_レイヤー_1-2" data-name="レイヤー 1">
    <g>
      <g>
        <path class="cls-2" d="m58.5,115.5c-7.69,0-15.16-1.51-22.19-4.48-6.79-2.87-12.88-6.98-18.12-12.21s-9.34-11.33-12.21-18.12c-2.97-7.03-4.48-14.5-4.48-22.19s1.51-15.16,4.48-22.19c2.87-6.79,6.98-12.88,12.21-18.12s11.33-9.34,18.12-12.21c7.03-2.97,14.5-4.48,22.19-4.48s15.16,1.51,22.19,4.48c6.79,2.87,12.88,6.98,18.12,12.21s9.34,11.33,12.21,18.12c2.97,7.03,4.48,14.5,4.48,22.19s-1.51,15.16-4.48,22.19c-2.87,6.79-6.98,12.88-12.21,18.12s-11.33,9.34-18.12,12.21c-7.03,2.97-14.5,4.48-22.19,4.48Z"/>
        <path class="cls-1" d="m58.5,3c7.49,0,14.76,1.47,21.6,4.36,6.61,2.8,12.54,6.8,17.64,11.89,5.1,5.1,9.1,11.03,11.89,17.64,2.9,6.85,4.36,14.11,4.36,21.6s-1.47,14.76-4.36,21.6c-2.8,6.61-6.8,12.54-11.89,17.64-5.1,5.1-11.03,9.1-17.64,11.89-6.85,2.9-14.11,4.36-21.6,4.36s-14.76-1.47-21.6-4.36c-6.61-2.8-12.54-6.8-17.64-11.89-5.1-5.1-9.1-11.03-11.89-17.64-2.9-6.85-4.36-14.11-4.36-21.6s1.47-14.76,4.36-21.6c2.8-6.61,6.8-12.54,11.89-17.64,5.1-5.1,11.03-9.1,17.64-11.89,6.85-2.9,14.11-4.36,21.6-4.36m0-3c-7.89,0-15.56,1.55-22.77,4.6-6.97,2.95-13.22,7.16-18.59,12.53-5.37,5.37-9.59,11.63-12.53,18.59C1.55,42.94,0,50.61,0,58.5s1.55,15.56,4.6,22.77c2.95,6.97,7.16,13.22,12.53,18.59,5.37,5.37,11.63,9.59,18.59,12.53,7.22,3.05,14.88,4.6,22.77,4.6s15.56-1.55,22.77-4.6c6.97-2.95,13.22-7.16,18.59-12.53,5.37-5.37,9.59-11.63,12.53-18.59,3.05-7.22,4.6-14.88,4.6-22.77s-1.55-15.56-4.6-22.77c-2.95-6.97-7.16-13.22-12.53-18.59-5.37-5.37-11.63-9.59-18.59-12.53-7.22-3.05-14.88-4.6-22.77-4.6h0Z"/>
      </g>
      <g>
        <circle class="cls-2" cx="58.5" cy="58.5" r="48.78"/>
        <path class="cls-1" d="m58.5,11.22c26.07,0,47.28,21.21,47.28,47.28s-21.21,47.28-47.28,47.28S11.22,84.57,11.22,58.5,32.43,11.22,58.5,11.22m0-3c-27.77,0-50.28,22.51-50.28,50.28s22.51,50.28,50.28,50.28,50.28-22.51,50.28-50.28S86.27,8.22,58.5,8.22h0Z"/>
      </g>
      <g>
        <path class="cls-2" d="m82.57,79.84c-13.3,0-22.57-4.32-22.57-8.2s9.27-8.2,22.57-8.2c9.88,0,18.45,5.72,21.69,8.2-3.24,2.47-11.81,8.2-21.69,8.2Z"/>
        <path class="cls-1" d="m82.57,64.95c8.08,0,15.29,4.05,19.13,6.7-3.84,2.64-11.05,6.7-19.13,6.7-13.07,0-21.07-4.33-21.07-6.7s8-6.7,21.07-6.7m0-3c-13.3,0-24.07,4.34-24.07,9.7s10.78,9.7,24.07,9.7,24.07-9.7,24.07-9.7c0,0-10.78-9.7-24.07-9.7h0Z"/>
      </g>
      <g>
        <path class="cls-2" d="m34.43,79.84c-9.88,0-18.45-5.72-21.69-8.2,3.24-2.47,11.81-8.2,21.69-8.2,13.3,0,22.57,4.32,22.57,8.2s-9.27,8.2-22.57,8.2Z"/>
        <path class="cls-1" d="m34.43,64.95c13.07,0,21.07,4.33,21.07,6.7s-8,6.7-21.07,6.7c-8.08,0-15.29-4.05-19.13-6.7,3.84-2.64,11.05-6.7,19.13-6.7m0-3c-13.3,0-24.07,9.7-24.07,9.7,0,0,10.78,9.7,24.07,9.7s24.07-4.34,24.07-9.7-10.78-9.7-24.07-9.7h0Z"/>
      </g>
      <g>
        <path class="cls-2" d="m54.71,71.48c-4.77,0-12.42-4.45-19.03-11.06-6.99-6.99-9-17.09-9.54-21.13,4.04.54,14.15,2.56,21.13,9.54,4.41,4.41,7.86,9.23,9.71,13.57,1.62,3.8,1.79,6.86.46,8.19-.59.59-1.51.89-2.73.89Z"/>
        <path class="cls-1" d="m27.95,41.09c4.59.85,12.55,3.08,18.26,8.8,9.24,9.24,11.84,17.97,10.17,19.64-.38.38-1.11.45-1.66.45-3.54,0-10.67-3.32-17.97-10.62-5.71-5.71-7.95-13.68-8.8-18.26m-3.49-3.49s.77,14.48,10.17,23.88c7.15,7.15,15.06,11.5,20.09,11.5,1.58,0,2.88-.43,3.79-1.33,3.79-3.79-.77-14.48-10.17-23.88s-23.88-10.17-23.88-10.17h0Z"/>
      </g>
      <g>
        <path class="cls-2" d="m62.29,71.48c-1.21,0-2.13-.3-2.73-.89-1.33-1.33-1.16-4.39.46-8.19,1.85-4.34,5.3-9.16,9.71-13.57,6.99-6.99,17.09-9,21.13-9.54-.54,4.04-2.56,14.15-9.54,21.13-6.62,6.62-14.26,11.06-19.03,11.06Z"/>
        <path class="cls-1" d="m89.06,41.09c-.84,4.58-3.06,12.52-8.8,18.27-7.3,7.3-14.43,10.62-17.97,10.62-.55,0-1.29-.08-1.66-.45-1.67-1.67.92-10.39,10.17-19.64,5.72-5.72,13.69-7.95,18.27-8.8m3.48-3.49s-14.48.77-23.88,10.17-13.95,20.09-10.17,23.88c.9.9,2.2,1.33,3.79,1.33,5.04,0,12.94-4.35,20.09-11.5,9.4-9.4,10.17-23.88,10.17-23.88h0Z"/>
      </g>
      <g>
        <path class="cls-2" d="m58.5,75.9c-3.31,0-8.2-16.31-8.2-30.95,0-9.88,5.72-18.45,8.2-21.69,2.47,3.24,8.2,11.81,8.2,21.69,0,14.65-4.88,30.95-8.2,30.95Z"/>
        <path class="cls-1" d="m58.51,25.8c2.64,3.83,6.69,11.02,6.69,19.14,0,5.98-.9,13.16-2.41,19.2-1.7,6.8-3.52,9.47-4.28,10.14-.76-.66-2.58-3.33-4.28-10.14-1.51-6.04-2.41-13.22-2.41-19.2,0-8.09,4.06-15.3,6.7-19.14m0-4.93s-9.7,10.78-9.7,24.07,4.34,32.45,9.7,32.45,9.7-19.16,9.7-32.45-9.7-24.07-9.7-24.07h0Z"/>
      </g>
      <g>
        <path class="cls-2" d="m153.57,44.4c.19-.09.47-.09.66-.09,1.41,0,3.19,1.5,4.23,2.35.09.85.19,1.69.19,2.44,0,1.13-.56,2.25-1.5,2.91-.66,3.38-1.41,6.67-2.54,9.86-3.57,10.52-12.68,21.42-24.61,21.42-2.91,0-4.79-1.6-4.79-4.51,0-.75.66-1.32,1.22-1.69,1.32-.85,2.82-1.5,4.23-2.16,4.23-1.78,8.17-3.76,11.84-6.48,4.79-3.66,10.33-13.72,10.33-19.64,0-.75-.19-1.6-.28-2.35l1.03-2.07Zm59.09-9.77v.19c0,3.38-5.82,6.11-8.83,6.11h-.56c-2.16-.38-4.32-.85-6.58-1.13-5.64-.75-11.27-1.13-16.91-1.13l-2.35-.09c-6.11,0-21.7.85-27.34,2.44-2.35.66-4.23,1.88-6.39,3.01-.66-.66-1.13-1.5-1.13-2.44,0-.56.09-1.03.09-1.6,0-.19,0-.47-.09-.75.47-1.6,1.5-5.45,3.76-5.45h.28l3.1.47c7.33-2.63,15.5-2.82,23.3-3.01.09-.47.19-1.03.19-1.6,0-1.97-1.69-3.66-1.69-5.64-.19-.38-.38-.85-.38-1.22,0-1.6,1.88-2.25,3.19-2.25l6.48,2.63c.75.38,1.6,1.5,1.6,2.44-.47.85-1.31,2.25-1.31,3.29,0,.75.38,1.41.66,2.07,7.42.38,24.52.47,30.81,3.19l.09.47Zm-22.36,19.64c.75-.09,1.41-.19,2.16-.19,1.13,0,2.54.28,3.38,1.22,1.13,1.31,1.97,3.01,2.82,4.42.75,1.31,1.78,2.54,2.72,3.66,2.54,3.48,4.6,7.23,6.39,11.09-.38,2.35-1.32,5.17-4.13,5.17-1.69,0-3.85-.75-5.54-1.03-3.57-.47-7.23-.66-10.9-.66-9.39,0-18.7,1.22-27.71,3.66-3.1-1.88-2.91-5.54-3.29-8.83,2.07-.85,3.38-1.69,4.7-3.48l13.72-18.7c1.31-1.69.94-4.98,3.76-4.98s5.07,1.69,6.58,4.13c-.28,2.16-2.91,3.57-4.51,4.7-2.16,1.5-10.52,14.09-12.12,17,3.95-1.31,8.74-1.6,12.96-1.6,5.64,0,11.27.38,16.82,1.13-.85-1.88-1.78-3.66-3.01-5.26-1.6-2.25-7.23-7.42-7.23-9.77l2.44-1.69Z"/>
        <path class="cls-2" d="m308.02,52.19c-2.07,2.91-5.54,5.26-8.74,6.86-8.36-2.16-16.82-3.29-25.46-3.29h-21.51c-4.13,0-8.27.56-12.21,1.6l.38,3.57c6.67-1.32,13.53-1.41,20.39-1.41h11.27c4.42,0,8.83.09,13.06.85.66-.28,2.44-1.03,3.1-1.03.19,0,.47.09.66.19,2.82,0,4.7,2.25,6.58,4.13-3.48,2.63-2.91,7.61-3.95,11.37-.94,3.57-4.42,7.42-6.95,9.96-.56.09-1.13.19-1.69.19-1.69,0-5.92-.94-5.92-3.19,0-5.26,8.27-3.48,8.27-13.43,0-.56,0-1.03-.09-1.6-7.05-1.88-12.59-1.88-19.73-2.44-1.97-.09-4.04-.38-6.11-.38-2.35,0-4.79.19-7.14.38.66,1.97,1.97,3.76,2.91,5.64,1.03,1.88,1.88,3.85,2.72,5.92l7.33,1.22.75-4.13c-.47-1.03-2.91-4.32-2.91-4.98,0-.94,1.31-1.32,2.25-1.32.28,0,.47.09.66.09l6.48,1.69.56,1.22-.94,1.41c0,.09.09.28.09.47,0,.75-.38,1.6-.56,2.25.19,1.79.47,3.66.47,5.45,0,2.63-2.82,4.32-5.07,4.79-5.26-1.88-11.46-2.25-16.91-2.25h-3.48c-6.01,0-12.31.19-17.85,2.63-2.54-.66-3.1-3.19-3.1-5.54s.47-4.51.47-6.67c0-1.31-1.41-2.25-1.41-3.38,0-1.97,1.79-1.69,3.29-2.07,2.16.38,3.76,2.35,4.6,4.32-1.13,1.69-1.13,4.6-1.13,6.58l7.89-1.79c.75-2.72,2.91-8.92,4.7-11.18-2.82.47-5.64,1.13-8.17,2.54-.47-.47-.85-.94-.85-1.6v-1.69c0-1.22.09-2.44.56-3.38-.47-3.57-.66-7.14-.66-10.8l.09-3.19c0-3.01.19-5.92.38-8.93.19-1.41.47-2.91.47-4.23,0-2.07-.85-4.04-2.44-5.26,0-.19-.09-.38-.09-.66,0-2.35,2.54-2.44,4.32-2.44h.75c1.97,0,3.85.94,5.54,1.88l10.43-1.6c0-2.35-2.91-2.91-2.91-4.98,0-1.31,1.5-1.69,2.63-1.69h.47l6.95.75,1.5,2.16c-.75,1.41-1.97,1.97-1.97,3.76h9.02c1.79,0,3.57,0,5.26-.09,1.5-.09,3.19-.85,4.6-.85,2.72,0,4.89,1.03,6.76,2.91l-2.35,4.13,1.5,13.25c-1.5,1.69-3.85,3.66-6.29,3.66-1.22,0-3.85-.94-5.45-1.03-1.79-.09-3.57-.19-5.35-.19-9.21,0-19.17.09-28.09,2.44l-.19,2.82c3.29-1.03,9.11-1.6,12.31-1.6,12.5.19,24.99.47,37.49.47,4.79,0,10.05-.85,14.94-1.32.94-.09,1.97-.19,2.91-.38l-.09,2.44Zm-28.94-12.78v-.66c0-1.88-.28-5.82-.66-6.67-4.04-1.6-8.55-1.69-12.87-1.69h-5.73c-6.2,0-12.5.19-18.32,2.07l-.19,3.76c5.26-1.13,10.62-1.5,15.97-1.5,2.44,0,4.98.19,7.52.19,1.88,0,3.76-.19,5.64-.19,1.97,0,3.95.19,5.73,1.03-1.22,3.01-5.17,3.66-8.08,3.66-3.38,0-6.76-.28-10.15-.28-4.32,0-13.81.19-17.29,2.72v3.38c7.23-2.07,20.76-2.54,28.37-2.54,3.29,0,6.67.09,9.86,1.32l.19-4.6Zm-31.28,29.22c-1.69,2.35-2.82,5.17-3.85,7.89,1.41-.38,2.82-.38,4.23-.38s2.91,0,4.23.38c-.85-2.91-2.16-5.92-4.6-7.89Z"/>
        <path class="cls-2" d="m316.38,84.89c.75-15.88-1.22-26.12,10.15-39.74.19-.56.38-1.13.38-1.79,0-1.97-1.97-4.79-3.29-6.11-.19-.09-.38-.09-.66-.09-1.79,0-3.48,2.82-5.26,3.76-1.22-.94-1.69-2.44-2.82-3.29.19-2.54,0-4.04,2.07-5.64,3.1-2.54,13.34-6.11,17.29-6.86.19-.19.38-.28.66-.28.47,0,.94.56,1.22.85-.94,4.7-5.54,6.48-7.8,10.15,2.35,3.29,3.57,6.76,4.42,10.62-1.03,4.6-5.36,7.33-7.61,11.37-3.01,5.54-2.72,10.52-3.95,16.44-.75,3.48-2.07,6.76-3.01,10.15l-1.79.47Zm77.7-22.92c-.85,1.97-3.29,3.66-5.17,4.6-.75,0-2.16-1.03-3.01-1.03-.09,0-.28,0-.38.09-3.95-1.78-8.46-2.35-12.78-2.44l-.47,1.6.38,5.45c6.39.94,12.59,3.38,19.07,4.51,2.91.47,5.83.47,8.64.47.75.47,1.6.94,1.6,1.88,0,1.88-3.01,4.89-4.51,5.73-2.25,1.5-4.79,2.44-7.42,3.01-13.34-5.45-30.72-15.88-45-17.19-5.07,4.98-10.9,11.37-17.94,13.43-2.16-.19-2.44-1.97-2.44-3.76,2.82-4.6,10.99-2.44,12.96-9.68-.38-.38-.66-.47-1.13-.47-2.54,0-5.17.75-7.8.75-.28,0-.66-.09-.94-.09-.09-.47-.09-.85-.09-1.22,0-4.32,6.01-4.89,10.33-4.89,1.32,0,2.44.09,3.19.09,1.79-2.72,1.5-6.11,3.29-8.83l-.56-1.32c-.47,0-1.41.09-2.44.09-1.97,0-4.23-.38-4.23-2.35,0-1.13,4.23-6.2,5.17-8.74l-4.79.94-1.32-.38c-.66-.75-.66-1.5-.66-2.44-.47-.47-.75-1.13-.75-1.79,0-.94.66-1.6,1.5-1.97l1.31.28,9.39-1.6,4.6,1.6c4.98-1.69,10.15-1.78,15.22-2.82v-2.35c-.38,0-.84-.19-1.31-.19-2.82,0-6.29.56-9.11,1.13-.85.19-1.6.38-2.44.66-.09,0-.19.09-.38.09-.94,0-1.13-.28-1.88-.85-.09-.19-.19-.38-.19-.56,0-.75.66-1.13,1.03-1.69v-1.6l.38-.09h1.13c3.38-1.6,7.89-2.16,11.56-2.63-.09-.94-.28-1.97-.28-2.91,0-1.79,1.88-2.44,3.29-3.01l4.32,1.78c-.09.19-.19.47-.19.66,0,.94.66,2.35,1.03,3.19,3.01,0,5.92.38,8.93.38,1.6,0,3.29-.09,4.88-.38,1.88,1.13,4.13,0,5.64,2.25-1.03,1.69-1.88,3.66-1.88,5.73,2.54,1.6,7.14.28,9.68,2.35-.94,2.07-2.91,4.42-5.17,4.98l-5.35-1.69c-1.79.47-2.25,3.19-3.1,4.6-.94,1.88-2.82,2.16-4.7,2.16-1.22,0-2.35-.09-3.38-.09-2.25,0-4.79.47-6.95.66l-.47.47c-.09.38-.19.75-.19,1.13,0,.47.09.94.19,1.41.66.19,1.41.19,2.35.19,1.6,0,3.48-.09,5.36-.09,3.57,0,6.95.47,7.61,3.57-2.16,1.41-4.7,1.6-7.14,1.6h-3.38c-1.88,0-3.57,0-5.36.85v2.63c1.69.28,19.54.75,22.27,2.44l.38,1.69Zm-28-6.48c-.47-.09-1.13-.28-1.6-.28-3.38,0-6.67,1.22-9.86,2.07l-.85-1.97,2.54-3.1c3.29-.75,6.86-2.25,10.15-2.54-.09-.28-.09-.56-.09-.85v-1.6l-.28-.47h-2.16c-3.38,0-6.95.47-10.05,2.07l-.84-2.07c1.03-1.03,1.03-3.1,2.07-3.66l1.13.38,9.87-1.78.47-2.35-.28-1.41c-3.01.28-14.37,1.69-16.63,3.1-1.22.75-3.66,3.85-4.23,5.26l4.13,1.78c.09.66.09,1.32.09,1.97,0,3.85-2.25,9.39-2.54,13.62.28.38,1.22.75,1.79.75h.09l1.97-.75.84-2.63c4.79-.75,9.77-1.78,14.47-2.91l-.19-2.63Zm.38,10.52v-.19c0-.47-.28-1.41-.75-1.41-3.01,0-6.01.66-8.83,1.69,3.01.85,6.01,1.79,9.11,2.25l.47-2.35Zm17.94-32.6c.28-.75.38-1.6.38-2.44-1.03-.56-6.58-1.5-8.64-1.5-.19,0-.47.09-.56.09l-2.72.56-.38,1.03.28,1.69c3.29.38,6.58.47,9.86.47l1.79.09Zm-1.22,4.51c-2.44-.66-4.98-.66-7.42-.66-.66-.28-1.32-.47-1.97-.47-1.22,0-1.32,1.79-1.32,3.01v1.13c.47,0,1.03.09,1.5.09,1.13,0,2.44.09,3.76.09,1.6,0,3.1-.09,4.51-.47l.94-2.72Z"/>
        <path class="cls-2" d="m496.86,51.72c-1.03.47-2.16,1.13-3.19,1.5-1.13.38-2.35.56-3.38,1.13-2.16-.56-4.42-1.03-6.58-1.31-4.04,5.64-4.98,6.76-12.12,6.76-2.72,0-5.54.19-8.27.38-2.35,8.08.09,17.38-4.23,25.08-2.63-1.32-2.82-5.82-2.82-9.11v-1.6l.19-13.25-.47-.75c-4.32.75-8.92.75-12.4,3.76,3.38.56,6.58.47,9.96,1.22-.56,1.13-1.22,2.16-2.07,3.1-2.16.19-9.96.94-11.56,1.41-1.03.28-2.07.85-2.54,1.97l-2.44-1.32c-.09-.28-.19-.47-.19-.75s.09-.66.09-.94c0-.56-.19-1.13-.75-1.22,0-1.41.66-3.29,2.35-3.29,1.31,0,2.63.19,3.85.28.94-.47,1.97-.19,3.01-.66-1.41-1.32-.94-4.04-2.25-4.89v-.75c0-.75.75-1.78,1.6-1.78.56,0,2.16.38,2.54.38l10.99-1.97c.09-.47.09-1.03.09-1.5,0-.56-.09-.94-.47-1.31-5.45.85-11.37,1.03-16.44,3.66v1.69l-2.07.56-2.07-1.41c-3.57,6.2-15.22,17.38-22.64,17.38-1.69,0-3.19-.56-4.51-1.5l.38-2.25c3.95-6.2,18.32-4.89,23.86-19.17.75-1.97,1.22-4.04,1.22-6.11,0-.94-.56-2.35-1.22-2.91.47-1.13,1.32-2.16,2.54-2.54,1.03,1.32,3.01,1.22,4.13,2.54l.94.09h.28c2.44,0,4.79-.94,7.14-1.6,2.91-.66,5.73-.85,8.64-1.6l-.66-2.25c.19-1.22,1.41-2.07,2.54-2.35l1.79.85c.85,1.22,2.25,3.1,3.85,3.1,1.03,0,2.16-.38,3.29-.38,2.91,0,6.11.56,9.02.75.47-.94,1.41-1.6,2.54-1.6,2.82,2.54,7.99,4.42,7.99,8.83v.66c3.29,1.41,7.05.85,10.43,2.44l.09,2.54Zm-33.26-25.46c2.16.28,4.13.28,6.2.28h3.1c3.76,0,16.35,1.13,19.64,2.35,1.6.66,2.91,1.6,3.57,3.19-1.22,1.22-3.29.94-4.13,2.54-2.54.47-5.36,1.13-7.99,1.13-1.22,0-6.86-1.5-8.64-1.79-3.85-.56-7.8-1.31-11.65-1.31-6.58,0-15.6,1.13-21.98,2.63-2.54.56-5.92.28-8.83,1.03-3.1.75-5.36,1.88-7.89,3.76-3.19-1.03-2.07-4.32-3.48-5.82,0-.94.28-2.16,1.41-2.44l1.03.28c9.96-2.82,20.2-4.42,30.44-5.17v-.47c0-1.69-1.69-2.54-2.35-4.13.47-1.6,2.07-2.63,3.66-2.63,1.32,1.6,4.79,2.82,6.67,4.13l.47,1.97.75.47Zm-33.07,59c-1.03-.56-1.22-1.32-1.22-2.44s-1.22-1.88-1.88-2.54c.19-.56.56-1.03.85-1.6l-.09-.47c1.69-1.41,3.57-.75,5.45-1.22,2.07-.47,3.85-1.5,5.73-2.35,2.16-.94,4.32-1.5,6.58-2.07.94-.19,1.88-.47,2.91-.47s1.79.28,2.63.66c-.47,1.03-1.13,2.16-1.97,2.82-.85.75-3.01,1.41-4.13,1.97-3.38,1.69-6.95,3.48-10.24,5.35-1.03.56-3.48,2.35-4.42,2.35h-.19Zm26.49-40.68c-.56-.56-.94-.66-1.6-.66-2.82,0-6.11.56-8.93,1.22-1.22.19-6.58,2.25-6.76,2.25l-.47-.19c-.56-.75-.19-1.32-1.13-1.88-.75.94-.85,2.35-.85,3.57v.75l.19.19c.19,0,.38,0,.56-.09l.47.28c5.64-2.35,12.5-2.63,18.51-3.57v-1.88Zm11.65,6.76l-1.22.47c-1.22,0-2.54,0-3.85.09-.47.38-.94.94-.94,1.6,0,.47.28.85.47,1.22.85.09,1.69.09,2.54.09,3.57,0,7.14-.09,10.71-.09.28-.38.28-.85.28-1.32,0-.28,0-.56-.09-.85-1.41-1.13-2.44-1.13-4.13-1.13-.66,0-1.5.28-2.07.38l-1.69-.47Zm7.61-7.42c-3.57-.28-7.23-.75-10.8-.75-.75,0-1.5,0-2.25.28v2.91h2.25c3.95,0,7.99.28,11.84.47l-1.03-2.91Zm8.55,39.46c-.28,0-2.07.47-2.25.47-1.79,0-14.09-5.64-15.69-6.95-1.41-1.22-2.25-3.01-2.35-4.89l.94-.47c1.97,0,3.57,1.41,5.54,1.6h2.44c.38,0,.84,0,1.31.09,1.69.28,3.29.94,4.98,1.32,3.1.47,6.29,1.13,9.49,1.6,1.41.19,3.95,0,5.07.85-.09.94-.19,1.88-.19,2.82-3.38,2.44-6.01,2.54-8.17,4.04l-1.13-.47Zm-7.52-21.42l3.48-1.22c.28,0,.56,0,.85.19.75.66,1.13,1.97,1.97,2.44.84.56,1.97.94,2.44,1.97-.75,1.88-2.82,1.88-3.01,2.72-.38-.09-1.03-.28-1.41-.28-2.16,0-8.92,1.41-10.8,1.69-.66-.66-1.88-.66-2.82-.85l-.47-.38c2.63-2.63,5.73-3.66,9.11-4.79l.66-1.5Z"/>
        <path class="cls-2" d="m550.69,68.82h-.19c-.47,0-1.69.19-1.97.19-1.13,1.13-1.41,2.72-1.41,4.23.47.38,2.07.47,3.76.47,1.88,0,3.76-.09,4.23-.09,5.36,0,10.71,1.22,16.07,1.78,5.26.56,10.52.75,15.78,1.88.56.75,1.22,1.6,1.22,2.63-4.04,1.41-6.48,6.48-11.09,7.14-13.9-4.51-20.39-7.05-35.33-7.05-2.82,0-12.78,1.32-15.41,2.16-2.07.56-4.13,1.6-6.2,2.16-1.5.38-3.01.75-4.42,1.22-2.16.75-4.51,3.48-6.67,3.48h-.09l-.38-.09-1.97-3.1c.09-.47.28-1.22.28-1.88,0-.19,0-.47-.09-.66.38-.85.75-4.6,2.16-4.6h.19l3.19,1.13c8.74-3.85,19.07-4.51,28.47-5.45.09-1.32.85-2.35.85-3.66,0-.56-.19-1.22-.56-1.69-.66,0-1.41-.09-2.16-.09-3.38,0-11.84.38-13.9,3.1-1.6,0-2.72-1.5-2.72-3.01-.09-.19-.09-.38-.09-.66,0-.56.47-1.22.47-1.79v-.19l.85-1.78c.85.28,1.69,1.31,2.63,1.31,3.85,0,10.9-1.03,14.94-1.41l.56-1.03v-.56c0-1.13.19-2.44.38-3.57l.66-.47c2.72.19,6.76,1.69,7.05,4.89l8.27-.09h2.91c4.04,0,7.99.38,10.9,3.57-.94,2.91-4.7,1.41-6.2,2.63l-14.94-1.03Zm28.75-34.67c1.88.75,5.54.75,5.54,3.48,0,.75-.47,1.6-.47,2.35,0,1.88.47,3.85.47,5.73,0,1.13-.28,2.16-.56,3.29-.75.56-2.25.56-2.54.75-1.79-2.82-2.54-6.2-3.29-9.49-2.07.09-4.13.38-6.11.38-1.79,0-6.2-.94-8.64-1.13-7.05-.38-14.09-.28-21.14-.66h-.28c-1.88,0-6.48.75-8.64.75-3.38.19-12.59.75-15.22,2.35-.94.66-1.79,1.41-2.63,2.16-1.22,1.03-2.82,2.07-3.57,3.48-.94,1.97-1.22,4.32-2.07,6.29l-2.16.85c-.84-1.41-.94-2.91-.94-4.51v-.94c0-.66-.28-1.32-.28-2.07,0-1.97.85-3.95,1.41-5.83-.09-.19-.47-1.5-.47-1.6,0-1.32.94-2.25,1.97-2.91,1.03,0,4.42.94,5.36,1.41,8.92-3.19,18.32-4.7,27.71-5.73l-.85-7.99-1.6-1.32v-.56c0-1.5.75-2.82,2.07-3.57,2.54,1.22,5.45,1.32,7.7,3.01,0,.94-1.31,3.57-1.6,4.7-.47,1.5-.38,3.29-.66,4.89,2.16.38,4.51.56,6.76.75,7.89.66,15.5,1.69,23.02,4.42l1.69-2.72Zm-45.85-6.11c-1.6.94-2.07,1.03-3.95,1.03-1.69,0-3.1.66-4.79,1.13-1.97.56-4.7.75-6.76.75h-.85c-.38,0-.66,0-.94-.09,1.79-4.89,7.61-5.64,11.74-7.7,1.88,1.88,5.64.56,5.64,4.42v.28l-.09.19Zm-5.64,16.25c7.23-.56,15.69-1.6,22.83-1.6,2.63,0,5.17.28,7.8.28,2.35,0,4.7-.66,7.05-.66,2.07,0,4.6,1.97,5.35,3.76-.09.66-.38,1.5-.38,2.07,0,1.41.38,2.91.38,4.32s-1.41,2.54-1.88,3.95c-1.79.47-3.57,1.03-5.26,1.6-4.42-.75-9.02-1.03-13.53-1.03-5.26,0-10.43.28-15.69.38-4.13.19-7.99,1.03-11.84,2.54-.85-.38-1.6-1.03-1.6-2.07,0-1.13,1.03-5.83,1.5-6.86-.09-1.13-.47-2.35-.47-3.48,0-.75,1.32-3.29,1.79-3.76l1.88-.28,2.07.85Zm38.42,6.58c-.47-1.03.19-1.03-.84-2.25-1.32-.38-2.44-.38-3.66-.38h-1.6c-4.6,0-9.21-.09-13.81-.19-1.6,0-3.19-.38-4.79-.38-1.5,0-3.01.09-4.51.09-.47,0-6.76,1.22-7.33,1.69-.38.28-.66.94-1.03,1.32-.56.56-1.5.28-1.5,1.5,0,.19.09.47.19.75l1.32.28,10.71-1.03.94.28c4.13-.75,8.46-.75,12.68-.75s8.64.28,12.87.47l.38-1.41Zm8.08-22.08c0,1.22-1.41,2.44-2.63,2.44h-.19c-4.42-.47-13.9-.75-13.9-7.42,0-.94.19-2.07,1.13-2.44,4.7,3.48,11.18,2.82,15.6,6.95v.47Z"/>
      </g>
    </g>
  </g>
</svg>