<?xml version="1.0" encoding="UTF-8"?>
<svg id="_レイヤー_2" data-name="レイヤー 2" xmlns="http://www.w3.org/2000/svg" viewBox="0 0 524 266.87">
  <defs>
    <style>
      .cls-1 {
        fill: #fca476;
      }

      .cls-2 {
        fill: #fff;
      }

      .cls-3 {
        stroke: #000;
        stroke-miterlimit: 10;
      }

      .cls-3, .cls-4, .cls-5 {
        fill: none;
      }

      .cls-6 {
        stroke: #fff;
      }

      .cls-6, .cls-7, .cls-5 {
        stroke-linecap: round;
        stroke-linejoin: round;
        stroke-width: 0px;
      }

      .cls-6, .cls-7, .cls-8 {
        fill: #fedece;
      }

      .cls-7, .cls-5 {
        stroke: #fca476;
      }
    </style>
  </defs>
  <g id="_レイヤー_1-2" data-name="レイヤー 1">
    <g>
      <g>
        <path class="cls-1" d="m167.38,262.52c0-51.25,41.54-92.79,92.79-92.79s92.79,41.54,92.79,92.79"/>
        <g>
          <path class="cls-4" d="m329.88,206.69c.26-.24-.11-1.44-.88-2.54.28.55-.28.42-.51.54-.12.06-.15.17.04.46.2.28.61.75,1.35,1.54Z"/>
          <path class="cls-4" d="m278.92,173.75l1.83.23c-.69-.34-1.68-.77-2.67-1.11-.99-.34-1.95-.68-2.54-.97-2.17.23,4.89,1.19,3.38,1.86Z"/>
          <path class="cls-4" d="m228.95,176.44c-.11.34.22.54.84.63.43-.25.77-.46,1.07-.65-.34-.14-1.14-.06-1.91.02Z"/>
          <path class="cls-4" d="m293.17,178.28c.21.13.45.26.74.4.07,0,.16,0,.25,0-.34-.16-.67-.3-.98-.41Z"/>
          <path class="cls-4" d="m283.56,174.41l.71.12-.31-.38c-.42,0-.49.11-.41.26Z"/>
          <path class="cls-4" d="m244.59,172.02l-.5-.15c-.24.1-.38.18-.44.25.26-.02.56-.05.94-.09Z"/>
          <path class="cls-4" d="m295.83,179.65c-.08,0-.17.02-.25.05.25.15.54.32.83.49-.12-.16-.33-.34-.58-.54Z"/>
          <path class="cls-4" d="m243,172.97c.13-.11.31-.23.45-.34-.34.03-.69.07-1.05.11.12.09.35.16.59.24Z"/>
          <path class="cls-4" d="m297.65,180.9c-.3-.23-.55-.45-.67-.66l-.22.15c.31.18.61.35.88.51Z"/>
          <path class="cls-4" d="m246.77,171.36s-.03,0-.04,0c-.32.04-.64.07-.95.12.46.17,1.1.36,1.79.51-.32-.24-.4-.46-.81-.63Z"/>
          <path class="cls-4" d="m306.43,184.46c.18.27.58.6.88.93.35.31.76.67,1.16,1.02-.13-.24-.17-.49-.03-.75.26.16.51.37.76.56l-1.05-1.38c-.26-.18-.53-.35-.83-.47-.7-.15-.94-.1-.88.09Z"/>
          <path class="cls-4" d="m306.34,184.2c.12.02.24.02.35-.03-.08-.02-.15-.05-.23-.06-.07.01-.11.05-.12.09Z"/>
          <path class="cls-4" d="m301.19,179.69l-.96.04c.97.4,1.54.45,2.22.6-.25-.17-.65-.38-1.26-.63Z"/>
          <path class="cls-4" d="m256.14,171.24s.05-.04.08-.07c-.78-.14-1.57-.18-2.42-.24.26.12.37.31.26.6.19.03.36.04.55.06,1.05-.08,2.1-.02,3.15-.03.12-.02.24-.04.35-.06-.59-.12-1.16-.22-1.74-.31-.08.02-.14.03-.23.05Z"/>
          <path class="cls-4" d="m265.57,169.62l.79.47c.37-.13.61-.29-.79-.47Z"/>
          <path class="cls-4" d="m266.82,170.37l-.46-.28c-.44.15-1.07.25.46.28Z"/>
          <path class="cls-4" d="m263.62,172.09c.21-.05.45-.09.72-.09l-.83-.04c.08.05.11.09.11.14Z"/>
          <path class="cls-4" d="m254.29,171.87l-.39-.06c.08.02.16.04.23.07h.15Z"/>
          <path class="cls-4" d="m187.83,211.55c-.07-.13-.17-.18-.28-.19-.42.52-.85,1.04-1.25,1.6.03-.02.07-.05.09-.07.44-.25.83-.35,1.44-1.33Z"/>
          <path class="cls-4" d="m251.53,170.75s-.02,0-.03,0c-.3.02-.59.04-.88.06h.02c.31-.03.61-.04.89-.05Z"/>
          <path class="cls-8" d="m171.26,251.8c-.07.36-.13.71-.19,1.05.1-.29.17-.62.19-1.05Z"/>
          <path class="cls-8" d="m168.85,255.52c-.36,2.69.71,2.66-.02,5.36l.77-.04-.37,1.51c.26-.46.56.93.96.16-.94.81.52-5.51-.76-3.18.46-.86.76-1.81,1.02-2.88.26-1.07.38-2.27.61-3.6-.3.84-.78,1.22-1.23,1.92l.71.96c-.46,2.82-1.54,2.11-1.69-.2Z"/>
          <path class="cls-8" d="m245.43,171.34c.09.05.24.09.35.13.31-.05.63-.08.95-.12-.44-.02-.83-.02-1.3-.01Z"/>
          <path class="cls-8" d="m251.63,172c-.64.02-1.28.08-1.92.15.55.04,1.08.05,1.63.13.03-.08.15-.17.29-.28Z"/>
          <path class="cls-8" d="m258.42,171.56c-.11-.02-.21-.04-.32-.06-.11.02-.23.04-.35.06h.67Z"/>
          <path class="cls-8" d="m259.47,171.62l-.51.65c.24.1.45.2.65.33.15-.18.56-.39.22-.55.51,0,1.02.05,1.52.07l-.39-.41c-.42-.05-.9-.09-1.5-.09Z"/>
          <path class="cls-8" d="m251.32,172.52l.31.02c-.05-.02-.1-.04-.14-.06l-.17.04Z"/>
          <path class="cls-8" d="m254.6,171.59c-.18-.02-.36-.03-.55-.06.11-.29,0-.48-.26-.6-.71-.06-1.44-.11-2.26-.18-.28.02-.58.03-.89.06.77.37,2.01.66,3.25,1l.39.06h-.15s.46.13.46.13l-2.25.6,2.45.2.65-.93c.29,0,.55,0,.8.01-.68-.13-1.36-.2-2.05-.28l.4-.02Z"/>
          <path class="cls-8" d="m260.73,171.46l-.38-.39c-.5.06-.98.18-1.47.28.67.1,1.28.1,1.84.11Z"/>
          <path class="cls-8" d="m246.76,171.35h-.03s.03,0,.04,0h0Z"/>
          <path class="cls-8" d="m249.51,171.25l-.55-.2c-.45.06-.91.13-1.37.19.38.05.87.08,1.92,0Z"/>
          <path class="cls-8" d="m260.09,172.92c-.16-.12-.32-.21-.47-.31-.11.13-.09.24.47.31Z"/>
          <path class="cls-8" d="m248.55,172.42c-.51-.14-.79-.29-.98-.43-.7-.15-1.33-.34-1.79-.51-.95.14-1.81.21-2.47.15l.74.22.16-.04c-.06.03-.07.03-.12.06l.5.15c-.38.05-.68.08-.94.09-.23.25.68.26,1.32.36.76-.07,1.5-.12,2.26-.06-.11.12-.22.22-.33.31l1.45-.22c.1-.03.15-.06.19-.09Z"/>
          <path class="cls-8" d="m248.67,172.46l-.31.05c-.24.07-.71.15-1.46.24-.35.3-.52.47.55.69l2.72-.88c-.67-.15-1.33-.29-1.97-.43.27.1.48.19.35.29.04.01.07.02.11.04Z"/>
          <path class="cls-8" d="m242.4,172.74c.36-.04.7-.07,1.05-.11.42-.32.57-.55-1.45-.22l1-.27c-.79.01-1.04-.18-2.09-.06.03.03.05.06.05.1,1.28.1,1.05.56,1.91.92.03-.04.07-.08.13-.13-.24-.07-.47-.14-.59-.24Z"/>
          <path class="cls-8" d="m243.42,173.45c-.63.14-1.27.24-1.89.41,1.02-.2,1.6-.3,1.89-.41Z"/>
          <path class="cls-8" d="m243.42,173.45l.33-.07s-.08-.02-.11-.03c0,0-.03,0-.04,0-.04.03-.09.06-.18.1Z"/>
          <path class="cls-8" d="m236.5,173.76c.83-.24,1.32-.28,1.58-.28.09-.11.15-.22.22-.34-.61.2-1.21.39-1.81.63Z"/>
          <path class="cls-8" d="m238.16,174.67c.22-.02.47-.05.8-.1l-.4-.42c-.19.18-.33.35-.4.52Z"/>
          <path class="cls-8" d="m240.31,173.78c-.17-.12-.61-.15-1.05-.18-.13.1-.26.19-.39.29.52-.09,1.12-.19,1.44-.11Z"/>
          <path class="cls-8" d="m256.86,170.44c-.64-.35-1.68-.61.69-.47.1-.05.18-.08.25-.12-.11-.07-.2-.16-.26-.27-.59.03-1.38.1-1.21-.19-.54.46-1.47.78-3.1.36.48.8,2.17.52,2.99.67.23,0,.44.02.64.03Z"/>
          <path class="cls-8" d="m256.36,171.19s-.1-.01-.15-.02c-.03.02-.04.04-.08.07.09-.02.14-.03.23-.05Z"/>
          <path class="cls-8" d="m257.58,169.57c.16.05.32.1.46.13.18-.14-.08-.15-.46-.13Z"/>
          <path class="cls-7" d="m263.39,170.21l-.51-.28c-.47.18-1.16.33.51.28Z"/>
          <path class="cls-7" d="m262,169.46l.88.47c.4-.16.65-.34-.88-.47Z"/>
          <path class="cls-8" d="m261.02,170.47l.44-.05-1.33-.5c.08.11.63.33.88.55Z"/>
          <path class="cls-8" d="m259.91,170.24l.02.37c.23-.04.47-.06.71-.09.01-.17-.3-.25-.73-.27Z"/>
          <path class="cls-7" d="m245.64,173.97c.77,0,.89.51,2.94.35-2.11-.07-.52-.7-2.94-.35Z"/>
          <polygon class="cls-8" points="255.22 173.24 255.39 173.07 252.17 173.12 255.22 173.24"/>
          <path class="cls-8" d="m279.56,174.58c.16-.11.08-.26-.1-.43-.23.06-.26.2.1.43Z"/>
          <path class="cls-8" d="m276.46,171.83c-.52-.2-.77-.23-.93-.19l.41.21c.16,0,.31-.01.52-.02Z"/>
          <path class="cls-8" d="m283.56,174.41c-.08-.14-.01-.25.41-.26l-.04-.05c-.82-.2-1.87-.59-2.24-.86l.82.95-1.45-.18s-.04.04-.08.05c.86.12,1.73.18,2.58.35Z"/>
          <path class="cls-8" d="m278.92,173.75c1.51-.67-5.56-1.63-3.38-1.86-.08-.04-.16-.08-.22-.12-.14.12-.28.27-.81.25-.73-.37-1.49-.68-2.24-1.02-.19.71,6.14,2.08,7.19,3.15.35-.1,1.16-.02,1.84.15-.14-.1-.33-.21-.56-.32l-1.83-.23Z"/>
          <path class="cls-8" d="m281.68,174.4c.43.15.73.33.69.54,1.14.22,1.6.29,1.74.22-.06-.45-1.68-.86-2.43-.77Z"/>
          <path class="cls-8" d="m281.69,173.24l-.15-.17s.06.1.15.17Z"/>
          <path class="cls-8" d="m280.73,172.37c.29-.08.39-.15.17-.12-.32-.06-.63-.1-.94-.14.22.12.48.2.78.27Z"/>
          <path class="cls-8" d="m278.78,172.21c-.25,0-.45.01-.61.02l.17.19c.66.13,1.32.13,1.83.05l-.33-.39c-.95-.14-1.83-.19-2.35-.59l.5.54c.15-.02.37.01.8.18Z"/>
          <path class="cls-8" d="m264.02,173.28c-.45-.02-.78-.05-.73-.1.19,0,.45.05.73.1.76-.02,1.51.03,2.26.06-.55-.26-1.09-.56-1.89-.9.37.07.67.09.95.08-.25-.13-.41-.27-.37-.42l.57.09c-.26-.08-.5-.13-.72-.16l-.48-.03c-.27,0-.51.04-.72.09,0,.12-.23.24-.34.36.14.1.28.19.42.31-.51-.09-.53-.19-.42-.31l-.26-.17c-.6.23-1.16.49-2.2.29,1.92.83,2.5,1.09,4.72,1.94.24-.51,1.17-.49,2.15-.53-.48-.2-.88-.38-1.25-.56-.12.48-1.42.02-2.42-.14Z"/>
          <path class="cls-6" d="m264.02,173.28c1.01.16,2.31.62,2.42.14-.05-.02-.09-.04-.14-.07-.45.03-1.52-.06-2.28-.07Z"/>
          <path class="cls-6" d="m266.3,173.36s-.01,0-.02-.01c-.75-.03-1.5-.08-2.26-.06.76.01,1.84.1,2.28.07Z"/>
          <path class="cls-6" d="m263.3,173.19c-.05.04.27.08.73.1-.28-.05-.54-.09-.73-.1Z"/>
          <path class="cls-7" d="m281.79,175.03c2.86,1.06-1.58.32,1.68,1.22.63-.28-.21-.85-1.68-1.22Z"/>
          <path class="cls-8" d="m315.46,190.89l.33.19-.84-1.83-.34-.18c.3.59.57,1.22.85,1.82Z"/>
          <path class="cls-8" d="m293.38,177.52c-.21-.19-.37-.37-.44-.52-.66-.68,1.38-.92-1.69-1.36,1.11.84-.12.98,2.13,1.88Z"/>
          <path class="cls-7" d="m296.72,178.15c-1.19-.43-.81.32-.01,1.02.22.06.42.15.62.25-.42-.45.32-.62-.61-1.27Z"/>
          <path class="cls-8" d="m314.59,187.68c-.18-.13-.42-.28-.69-.44.08.08.16.15.23.22.14.08.29.15.46.23Z"/>
          <path class="cls-8" d="m319.19,193.17c.27.47,0,.57,1.17,1.62-.39-.55-.69-1.03-.99-1.54l-.18-.08Z"/>
          <path class="cls-8" d="m320.4,194.82c.29.26.64.56,1.12.98.28.16.43.22.52.22-.7-.71-1.45-1.64-1.64-1.2Z"/>
          <path class="cls-8" d="m321.37,194.15l-.34-.16.09.09c.07.01.15.03.26.07Z"/>
          <path class="cls-8" d="m318.23,192.14c.27.32.57.66.81.96l.16.07c-.13-.21-.4-.52-.96-1.03Z"/>
          <path class="cls-8" d="m306.35,185.57c1.19.5,1.45.53,1.35.3-.41-.27-.85-.53-1.29-.76.18.22.22.4-.06.45Z"/>
          <path class="cls-8" d="m307.31,185.39c-.3-.33-.7-.66-.88-.93.05.2.41.51.88.93Z"/>
          <path class="cls-8" d="m302.77,181.86c-.22.05-.12.23.1.46.75.1,1.55.28,2.77,1.09-.82-.63-1.73-1.44-2.87-1.55Z"/>
          <path class="cls-8" d="m308.87,186.89c-.1-.13-.21-.27-.36-.4.09.14.21.27.36.4Z"/>
          <path class="cls-8" d="m311.22,186.18c.95.76,1.88,1.65,2.74,2.49.56.42.84.66.96.86l1.24.49c-.25-.25-.51-.49-.75-.73.18-.64,2.2.54,2.76,1.76,2.26,1.17-2.34-2.41.11-.83-1.99-1.91-1.99-1.65-2.16-1.43-.17.22-.49.35-3.26-1.58-.65-.73-.3-.68.27-.4-.77-.68-1.79-1.06-1.89-.62Z"/>
          <path class="cls-8" d="m307.91,184.53c-.24-.08-.41-.13-.59-.16.3.12.56.29.83.47l-.24-.31Z"/>
          <path class="cls-8" d="m313.04,190.49l-.33-.17c.3.45.62.88.9,1.35,1.02.02.03-1.15-1.19-2.28,0,0-.02.01-.03.02.36.35.61.71.65,1.08Z"/>
          <path class="cls-8" d="m317.39,191.49h0c.36.26.61.46.84.65-.55-.6-1.14-1.2-1.74-1.8-.07.18.51.73.9,1.15Z"/>
          <path class="cls-8" d="m309.88,187.12l-.68-.89c-.25-.19-.5-.4-.76-.56-.14.26-.1.5.03.75.4.35.76.68,1.05.98.72.46,1.59.99,2.3,1.53-.07-.09-.14-.19-.23-.3l.08.05c-.56-.53-1.02-1.03-1.26-1.33-.21-.1-.4-.18-.55-.23Z"/>
          <path class="cls-8" d="m302.46,180.32c.11.02.21.05.32.07-.39-.26-.88-.52-1.37-.71h-.21c.61.26,1.02.47,1.26.64Z"/>
          <path class="cls-8" d="m304.78,181.66h1.16c-1.05-.63-1.28-.66-1.33-.54.07.04.13.07.2.11-.3.12-.25.26-.03.44Z"/>
          <path class="cls-8" d="m314.91,189.53l-.14-.06c-.24-.26-.54-.53-.82-.81-.23-.17-.47-.34-.81-.57.43.65.15.67-.39.45l1.14,1.66c1.06.46,3.7,2.44,3.69,1.77-.09-.02-.21-.06-.4-.15-2.42-1.76-1.92-1.78-2.27-2.3Z"/>
          <path class="cls-8" d="m306.79,183.12h.32c.6-.11.96.11,1.42.5.04-.04.09-.07.18-.11-1.33-.82-2.11-1-2.81-1.18.39.24.74.5.88.78Z"/>
          <path class="cls-8" d="m306.34,184.2s.05-.08.12-.09c.08.01.15.04.23.06,0,0,.02,0,.02,0-.13-.07-.26-.15-.4-.24-.41-.11-.68-.17-.87-.18.32.22.62.42.89.47Z"/>
          <path class="cls-8" d="m308.77,184.4c.85.54,1.44.87,1.87,1.08-.48-.64-1.78-1.21-2.1-1.6-.17-.01-.18.11.23.52Z"/>
          <path class="cls-8" d="m311.78,185.75c-.19-.06-.4-.08-.66-.05.39.14.57.12.66.05Z"/>
          <path class="cls-8" d="m300.88,179.51c-.11-.03-.22-.06-.31-.07.09.04.15.06.23.09.04,0,.07,0,.08-.02Z"/>
          <path class="cls-8" d="m302.65,181.69c-.22-.16-.43-.29-.63-.41-.3.11-.55.21-.46.35.03-.1.31-.11,1.08.06Z"/>
          <path class="cls-8" d="m301.57,181.68c-.36-.17-.93-.58-1.58-.8.84.79,1.46,1.11,2.04,1.27-.23-.19-.42-.36-.45-.47Z"/>
          <path class="cls-8" d="m294.16,178.68c.29.03.64.14,1.01.29-.51-.4-.92-.73-1.81-1.02l-.63.03c.13.09.28.19.45.29.31.11.65.25.98.41Z"/>
          <path class="cls-8" d="m291.95,178.02c.17-.02.45.02.78.11-.07-.05-.14-.09-.22-.14l-.56.02Z"/>
          <path class="cls-8" d="m296.44,180.62l.2-.14-.12-.07c.02.09,0,.16-.08.21Z"/>
          <path class="cls-8" d="m296.41,180.19l.36.2.22-.15c-.38-.21-.67-.4-.93-.59-.07,0-.15,0-.22,0,.25.19.46.38.58.54Z"/>
          <path class="cls-8" d="m299.73,181.51c.15.13.32.25.45.38-.13-.18-.29-.3-.45-.38Z"/>
          <path class="cls-8" d="m299.73,181.51c-.87-.71-2.06-1.29-2.75-1.27.12.21.37.44.67.66.31.18.57.35.75.5,1.63,1.02,3.83,2.16,2.95,2.52,1.98.15-.99-1.44-2.6-2.5.31-.09.66-.08.98.09Z"/>
          <path class="cls-8" d="m306.81,183.18c.11-.03.2-.05.29-.07h-.32s.02.05.03.07Z"/>
          <path class="cls-8" d="m322.32,194.79c1.14,1.96,1.55,2.95,2.45,4.5.28-.6,1.26,1.16,2.15,1.87-.45-2.31-2.03-3.15-4.6-6.36Z"/>
          <path class="cls-8" d="m329.67,202.46c.04-.06.03-.21-.05-.52l1.04,1.42-1.02-2.26c1.43,2.95-2.34-2.03-2.01-.7.65.22,1.8,2.21,2.03,2.07-.18-.26-.35-.54-.52-.88l.54.86Z"/>
          <path class="cls-7" d="m315.66,191.96c1.46,2.19-.07-.22,2.13,1.56-.32-.84-1.39-.97-2.13-1.56Z"/>
          <path class="cls-8" d="m334.44,208.73c-.23-.46-.46-.93-.7-1.39.23.54.45,1,.7,1.39Z"/>
          <path class="cls-8" d="m334.44,208.73l.89,1.78c-.02-.14.02-.2.07-.24-.09-.22-.18-.44-.27-.66-.24-.25-.47-.53-.69-.87Z"/>
          <path class="cls-7" d="m334.08,212.93c.33-.26-.05-1.53-.74-2.82.47,1.25-2.34-.75.74,2.82Z"/>
          <path class="cls-8" d="m175.49,235.46c.02-.82-.62-.01-1.24.85-.05.09-.09.17-.13.22l.03-.07c-.43.6-.89,1.17-1.19,1.12-.05.12-.1.27-.15.44,1.16-.43.75-.65,2.68-2.57Z"/>
          <path class="cls-7" d="m171.6,249.38l-.24,1.11c.13-.18.24-.74.24-1.11Z"/>
          <path class="cls-7" d="m180.36,223.56l.45-.41c-.14.11-.29.23-.45.41Z"/>
          <path class="cls-8" d="m183.56,217.46s-.04.05-.06.08l.34.27-.28-.35Z"/>
          <path class="cls-8" d="m356.85,255.42c-.21.1-.44.12-.69,0-.16-.79-.32-1.59-.48-2.4-.18-.81-.36-1.62-.54-2.45-.17-.82-.35-1.65-.52-2.49-.2-.83-.41-1.67-.62-2.51-1.09,2.42-3.33,5.52-5.23,5.28.18,1.28.5,2.56.93,3.96l-.77.68c-.09,2.9-.19,4.78-.22,7.03,1.39.86,3.29-.4,4.9-2.15.81-.88,1.55-1.89,2.13-2.78.54-.89.93-1.66,1.08-2.06,0-.04,0-.07.01-.1Z"/>
          <path class="cls-8" d="m344.18,231.29l.19.1c-.37-1.04-.89-2.32-1.49-3.69-.66-1.35-1.39-2.81-2.14-4.24.24,1.37.6,2.74,1.42,4.18.89,2.16,2.01,4.62,2.89,7.04.49,1.19.85,2.39,1.2,3.49.34,1.1.65,2.11.8,3l-.19-.13c.41,1.07.72,2.09.97,3.07l.47-.55c-.52-1.02-.88-2-1.15-2.98-.27-.98-.55-1.94-.77-2.93-.42-1.99-1.02-4.05-2.21-6.35Z"/>
          <path class="cls-8" d="m195.79,202.17c-.04.05-.08.1-.13.16.67-.57,1.22-.98.74-.06.85-1.19.38-.81.69-1.69-.14.17-.29.36-.44.54-.29.35-.57.7-.86,1.05Z"/>
          <path class="cls-8" d="m197.09,200.58v-.02c-.14.18-.29.37-.44.56.15-.18.3-.36.44-.54Z"/>
          <path class="cls-8" d="m195.66,202.33h0c.05-.06.09-.11.13-.16-.05.06-.09.11-.14.16Z"/>
          <path class="cls-8" d="m230.96,176.48s-.07-.04-.11-.06c-.3.19-.64.4-1.07.65-.62-.09-.95-.29-.84-.63-.58.06-1.14.16-1.48.13l-1.32.28c.62.39,1.36.51,3.57.26-.03.03-.05.04-.07.07,1.1-.27,2.25-.57,2.81-.58.05-.35.44-.8.93-1.2-.21-.03-.33-.1-.31-.24l-2.12,1.32Z"/>
          <path class="cls-8" d="m235.34,173.63c.02-.19-.2-.31-.82-.34-.1.3-.09.51.82.34Z"/>
          <path class="cls-8" d="m233.86,173.44c-.69.5-1.01.82-1.19,1.09l.88-.1.31-.99Z"/>
          <path class="cls-8" d="m229.83,175.52c.09-.06.16-.11.25-.18-3.32,1.09-.41-.95-2.11-.96l-.39,1.66c.69-.28,1.45-.39,2.25-.52Z"/>
          <path class="cls-8" d="m195.59,202.31l-.61-.38c-1.04.78-1.82,1.73-2.73,2.68-.92.94-1.82,2.01-3.05,3.13l.17.18v-.04c1.12.07,2.3-1.39,3.9-2.49.78-1.02,1.54-2.09,2.39-3.06-.55.46-1.14,1.04-1.31,1.11.39-.4.83-.76,1.25-1.13Z"/>
          <path class="cls-8" d="m195.95,199.9l.07.63c.51-.32,1.01-.65,1.53-.95-.25.44-.36.75-.44.98.48-.62.98-1.19,1.45-1.77-1.02.64-1.89,1.21-2.6,1.11Z"/>
          <path class="cls-8" d="m180.76,221.16c-.04-.96-.8-.92-1.98,1.41l.99-.71c-1.34,2.31-1.16.28-2.13,2.33,0,0,0,0,.01,0l-.08.17c-.09.2-.17.36-.27.63.5.5,2.29-2.17,2.65-1.87.97-1.17,1.74-2.25,2.2-1.61-.5,1.15-.89,1.32-1.33,1.64.2-.1.35-.06.5,0,1.98-3.03.4-2.98,1.61-4.85-.25.26-.52.39-.87.75-.36.35-.78.93-1.29,2.1Z"/>
          <path class="cls-8" d="m184.91,199.57c.14-.2.28-.39.41-.59-.19.22-.37.42-.41.59Z"/>
          <path class="cls-8" d="m185.75,197.58c.15.25.14.49.04.71.27-.37.54-.74.81-1.12-.26.09-.52.19-.85.41Z"/>
          <path class="cls-8" d="m171.22,245.82c.6-1.52,1.4-2.74,1.75-5.16-.04-.06-.06-.1-.09-.15-.48,1.5-1.01,2.75-1.85,3.75.91-1.11.45.3.19,1.56Z"/>
          <path class="cls-8" d="m183.5,217.54l-.05-.04c-.05.11-.1.21-.14.29.06-.08.12-.16.19-.25Z"/>
          <path class="cls-8" d="m171.98,235.61c.01.46.04.91.1,1.34-.24.27-.52.85-.86,2.03.16,2.13.55,1.64.95,1.37l.42.81c-.5,1.57-1.04,1.83-1.32,1.28.09-.27.2-.56.33-.87-.22.01-.37.17-.47.42-.06-.33-.08-.76-.04-1.27-.37,1.29-.27,1.93-.28,2.6-.11.5-.26.91-.61.94l.23.8c-.02.09-.03.15-.05.23-.04.09-.07.18-.12.28h.05c-.34,1.23-.82.71-.69.55-.57,1.49-.1,2.69-.21,2.1,0-2.97.64-.84,1.04-2.64h.15s.03.89.03.89l-.2.49c.13-.15.21-.02.3.13-.24.75-.47,1.62-.53,2.72.61-.91,1.29-1.8,1.97-2.66-.18.73-.42,1.46-.57,2.2-.6,2.4-1.27.67-1.49,3.69-1.43-1.76-1.27-4.86-1.88-7.28.16-.87.29-1.54.4-2.14.14-.59.27-1.09.4-1.63.3-1.06.54-2.27,1.34-4.4-.72.15-.85-1.57-.64-3.85.13-1.13.32-2.4.52-3.64.21-1.24.49-2.42.67-3.42.45-.7.86-1.41,1.35-2.09,1.01-5.56,3.05-13.05,7.9-20.58,1.41-1.55,2.11-3.34,3.57-3.58l-.21.35.95-.63c-3.02,4.74-4.78,9.33-6.04,12.98l-1.47,1.73c-.63,1.74-1.46,4.23-1.99,6.24-.48,2.04-.61,3.62.07,3.58-1,1.82-1.41,2.88-1.82,3.8-.39.94-.75,1.76-1.26,3.3.02.16.03.33.04.49-.28-.11-.48-.26-1.05,1.43.6-1.4.81-.99,1.07-.79,0,.59-.02,1.18-.05,1.78-.38,1.05-.89,1.94-1.14,1.39l.49,1.1c.18-.55.41-1.09.64-1.62Zm-1.6,6.74c-.15.41-.32.89-.5,1.38-.4.74-.79.72-1.15,2.51.46-.35.8-1.44,1.15-2.51.16-.29.33-.69.5-1.38Z"/>
          <path class="cls-8" d="m188.2,210.6c.45-.48.88-.98,1.45-1.41l-.22-1.02c-1.3,1.19-1.1,1.72-1.23,2.43Z"/>
          <path class="cls-8" d="m170.7,246.35l.28-.68-.22-.02c0,.25-.03.48-.06.71Z"/>
          <path class="cls-8" d="m206.25,185.2l.06-.22c-1.08.7-2.17,1.3-3.23,1.96.53-.02,1.39-.34,3.17-1.74Z"/>
          <path class="cls-8" d="m184.35,213.88c.06.43-.16,1.49.62.35-1.29,2.23-1.66,2.18-1.99,2.04-.34-.15-.62-.39-1.59,1.55l.85-.55-.73,1.19c.49-.71,1.19-1.06,1.86-1.58,1.16-1.44,2.11-2.7,2.93-3.93-.11.07-.23.14-.35.26.13-.11.24-.19.35-.26.4-.55.83-1.08,1.25-1.6-.32-.04-.8.35-1.37.87-.57.52-1.17,1.19-1.84,1.67Z"/>
          <path class="cls-8" d="m205.74,192.04c-.61.64-1.28,1.28-1.98,1.93,0,0,0,0,0,.02-.37.78.1.47-.78,1.49.52-.8-.02-.49-.68-.02h0c-.44.44-.88.87-1.32,1.31,1.92-.91,2.74.02,4.48-1.2,1-.65,1.88-1.27,2.67-1.86.79-.6,1.54-1.1,2.19-1.63,1.31-1.07,2.41-2,3.45-2.95-.58.34-1.2.68-1.88,1.04-1.11.61-1.77.46-2.61.44-.82,0-1.87.07-3.53,1.43Z"/>
          <path class="cls-8" d="m173.16,235.77c.56-.59,1.16-1.15,1.74-1.71.04-.09.07-.17.12-.27l-.96.92c.9-2.71,1.71-2.86,1.91-1.83.58-2.08,1.17-2.57,1.56-3.01.43-.42.7-.77,1.01-2.43-.79.9-1.66,1.4-2.18,2.42l.59-1.39-.28.25c-1.12,2.81-2.55,3.5-3.51,7.04Z"/>
          <path class="cls-8" d="m179.04,224.18c-.11.12-.21.24-.31.34.13.46.06,1.63.72.28-1.63,4.18-1.77,1.64-2.61,2.74-.43-.59-1.09.71-1.22-.44.1-.13.21-.25.32-.37-.12.09-.23.18-.33.28-.02-.23,0-.53.03-.95,1.33-2.87,1.54-1.52,2.01-1.87-.02.04-.05.11-.07.16l-.53,1.1c1.06-.21.97-.36,2-1.27Zm-1.63,1.86l-1.06.64c-.14,1.54.55.05,1.06-.64l.41-.25c-.06-.18-.22-.03-.41.25Z"/>
          <path class="cls-8" d="m168.73,246.23c.46-.35.8-1.44,1.15-2.51-.4.74-.79.72-1.15,2.51Z"/>
          <path class="cls-8" d="m170.38,242.35c-.15.41-.32.89-.5,1.38.16-.29.33-.69.5-1.38Z"/>
          <path class="cls-8" d="m170.83,243.32c-.11.5-.26.91-.61.94l.23.8c-.02.09-.03.15-.05.23.35-.91.42-1.46.43-1.97Z"/>
          <path class="cls-8" d="m171.61,241.57c-.22.01-.37.17-.47.42.03.18.08.33.14.45.09-.27.2-.56.33-.87Z"/>
          <path class="cls-8" d="m169.63,246.14c-.57,1.49-.1,2.69-.21,2.1,0-2.97.64-.84,1.04-2.64l-.13-.02c-.34,1.23-.82.71-.69.55Z"/>
          <path class="cls-8" d="m170.76,245.64l-.16-.02.03.87.06-.14c.04-.22.06-.46.06-.71Z"/>
          <path class="cls-8" d="m170.97,233.74c.6-1.4.81-.99,1.07-.79,0-.22,0-.43-.02-.64-.28-.11-.48-.26-1.05,1.43Z"/>
          <path class="cls-8" d="m170.84,236.13l.49,1.1c.18-.55.41-1.09.64-1.62,0-.29-.01-.59,0-.87-.38,1.05-.89,1.94-1.14,1.39Z"/>
          <path class="cls-8" d="m175.6,227.01s0,.06,0,.09c.1-.13.21-.25.32-.37-.12.09-.23.18-.33.28Z"/>
          <path class="cls-8" d="m177.41,226.04l.41-.25c-.06-.18-.22-.03-.41.25Z"/>
          <path class="cls-8" d="m177.41,226.04l-1.06.64c-.14,1.54.55.05,1.06-.64Z"/>
          <path class="cls-8" d="m195.79,202.17c.29-.36.58-.7.86-1.05-.29.35-.57.7-.86,1.05Z"/>
          <path class="cls-8" d="m196.01,200.53l.07.6c-.39.26-.75.52-1.1.8l.61.38c-.42.37-.86.73-1.25,1.13.17-.08.77-.65,1.31-1.11.04-.05.09-.11.14-.16.29-.36.58-.7.86-1.05.15-.19.3-.37.45-.56.08-.23.19-.53.44-.98-.52.3-1.01.63-1.53.95Z"/>
          <path class="cls-1" d="m173.84,237.71c-.11.32-.22.63-.32.93.13-.24.24-.54.32-.93Z"/>
          <path class="cls-1" d="m171.28,247.27c-.4.25-.26-.56-.06-1.45-.17.41-.34.83-.49,1.3.13.23.26.52.55.15Z"/>
          <path class="cls-1" d="m173.52,238.64c-.37.72-.94.98-1.43,1.55l.08.16c.22-.14.45-.21.7.16.17-.59.42-1.2.64-1.87Z"/>
          <path class="cls-1" d="m171.28,242.44c-.52,1.45-.5,2.42-.52,3.2l.22.02-.28.68c-.02.1-.03.19-.05.28v-.14s-.21.49-.21.49c.13-.15.21-.02.3.13.15-.47.32-.89.49-1.3.26-1.26.72-2.66-.19-1.56.83-1,1.36-2.25,1.85-3.75-.25-.37-.49-.3-.7-.16l.42.81c-.5,1.57-1.04,1.83-1.32,1.28Z"/>
          <path class="cls-1" d="m170.28,245.58h.05c.02-.08.04-.18.07-.28-.04.09-.07.18-.12.28Z"/>
          <path class="cls-1" d="m171.14,241.99c-.06-.33-.08-.76-.04-1.27-.37,1.29-.27,1.93-.28,2.6.1-.46.16-.98.31-1.33Z"/>
          <path class="cls-1" d="m170.46,245.6h.15s-.02-.71-.02-.71c-.04.29-.08.52-.12.71Z"/>
          <path class="cls-1" d="m170.7,246.35l-.06.14v.14c.03-.09.04-.19.06-.28Z"/>
          <path class="cls-1" d="m171.28,242.44c-.06-.11-.1-.27-.14-.45-.15.35-.21.88-.31,1.33-.02.52-.08,1.06-.43,1.97-.02.1-.05.21-.07.29l.13.02c.04-.19.08-.42.12-.71l.02.72.16.02c.02-.78,0-1.75.52-3.2Z"/>
          <path class="cls-1" d="m250.31,170.67c.08.05.21.09.32.14.29-.02.58-.04.88-.06-.4-.03-.76-.07-1.2-.08Z"/>
          <path class="cls-1" d="m256.36,171.19c.58.09,1.15.19,1.74.31.27-.05.53-.1.79-.15-.22-.03-.44-.06-.68-.11.23-.52-.35-.73-1.35-.8.44.24.66.53-.49.76Z"/>
          <path class="cls-1" d="m256.24,171.89l.1.02-.68.11,3.18.42.13-.17c-.58-.22-1.35-.35-2.72-.38Z"/>
          <path class="cls-1" d="m253.79,170.93c.85.07,1.65.11,2.42.24.65-.53.5-.69,0-.76-1.33-.03-3.09.24-4.71.34,0,0,.02,0,.03,0,1.02-.05,1.84-.02,2.26.18Z"/>
          <path class="cls-1" d="m257.75,171.56c-1.05.01-2.1-.04-3.15.03,1.22.11,2.23.13,3.15-.03Z"/>
          <path class="cls-1" d="m263.51,171.95l.83.04c.15,0,.31,0,.48.03h.08s-.9-.96-.9-.96c-1.08.12-2.09.37-3.28.39l.24.25c1.03.12,1.59.3,2.05.58.19-.07.38-.14.59-.19,0-.05-.03-.09-.11-.14Z"/>
          <path class="cls-1" d="m258.89,171.35c-.26.05-.52.1-.79.15.11.02.21.04.32.06h-.67c-.92.16-1.93.14-3.15.03l-.4.02c.68.08,1.36.15,2.05.28,1.37.04,2.14.16,2.72.38l.51-.65c.59,0,1.08.03,1.5.09l-.24-.25c-.56,0-1.17,0-1.84-.11Z"/>
          <path class="cls-1" d="m251.53,170.75c.82.06,1.55.12,2.26.18-.42-.2-1.23-.23-2.26-.18Z"/>
          <path class="cls-1" d="m256.21,171.17s.1.01.15.02c1.15-.23.94-.51.49-.76-.2,0-.41-.02-.64-.03.5.07.65.24,0,.76Z"/>
          <path class="cls-1" d="m264.34,172l.48.03c-.17-.02-.33-.03-.48-.03Z"/>
          <path class="cls-1" d="m263.62,172.09c-.21.05-.41.12-.59.19l.26.17c.11-.11.33-.23.34-.36Z"/>
          <path class="cls-1" d="m263.7,172.76c-.14-.12-.28-.21-.42-.31-.11.12-.09.22.42.31Z"/>
          <path class="cls-1" d="m250.62,170.81c-.87.08-1.67.11-2.27.03l.61.22c.58-.08,1.15-.16,1.69-.24h-.02Z"/>
          <path class="cls-1" d="m252.07,172.68l.28-.08-.72-.06c.11.04.25.09.44.14Z"/>
          <path class="cls-1" d="m251.34,172.28c-.03.07,0,.14.15.21l.57-.13-.72-.08Z"/>
          <path class="cls-1" d="m253.9,171.81c-1.12-.16-2.2-.29-3.35-.35-1.15-.03-2.38-.06-3.78-.1.41.17.49.39.81.63.2.04.41.09.63.14-.27-.1-.6-.2-.73-.32,1.6-.04,3-.26,4.45-.06-.09.1-.2.18-.29.25l2.51-.12c-.07-.02-.16-.04-.23-.07Z"/>
          <path class="cls-1" d="m245.51,171.14c.63.01,1,.11,1.25.21.27-.03.55-.07.83-.11-.52-.06-.84-.21-2.08-.1Z"/>
          <path class="cls-1" d="m254.14,171.88l-2.51.12c-.14.11-.26.2-.29.28l.72.08-.57.13s.08.04.14.06l.72.06,2.25-.6-.46-.13Z"/>
          <path class="cls-1" d="m253.9,171.81c-1.25-.33-2.49-.63-3.25-1-.54.07-1.11.15-1.69.24l.55.2c-1.05.08-1.54.05-1.92,0-.28.04-.56.07-.83.11h0c1.41.04,2.63.08,3.78.11,1.15.07,2.23.19,3.35.35Z"/>
          <path class="cls-1" d="m248.55,172.42c.13-.1-.08-.19-.35-.29-.21-.05-.43-.09-.63-.14.19.14.46.29.98.43Z"/>
          <path class="cls-1" d="m246.6,172.78c.11-.01.2-.02.29-.03h.01s-.31.03-.31.03Z"/>
          <path class="cls-1" d="m246.91,172.73h-.01c.76-.07,1.22-.15,1.46-.22l-1.45.22Z"/>
          <path class="cls-1" d="m248.67,172.46s-.07-.02-.11-.04c-.04.03-.1.06-.19.09l.31-.05Z"/>
          <path class="cls-1" d="m243.45,172.63c-.15.11-.32.23-.45.34.4.12.79.23.62.37h.02c.17,0,.35-.03.58-.05l-.51-.58c.53-.05,1.4-.21,1.78-.09-.09-.08-.29-.12-.52-.15-.49.05-1,.1-1.52.15Z"/>
          <path class="cls-1" d="m244.09,171.87h-.04s-1.06.27-1.06.27c.18,0,.4,0,.66-.02.06-.06.2-.14.44-.25Z"/>
          <path class="cls-1" d="m242.86,173.1c-.15.18-.05.3.74.25h.02c-.33-.08-.56-.17-.76-.25Z"/>
          <path class="cls-1" d="m243.65,172.11c-.26.02-.48.03-.66.02l-1,.27c2.03-.33,1.88-.1,1.45.22.52-.05,1.03-.1,1.52-.15-.65-.1-1.55-.12-1.32-.36Z"/>
          <path class="cls-1" d="m244.21,171.81l-.16.04h.04s.07-.02.12-.04Z"/>
          <path class="cls-1" d="m243.62,173.34c.17-.14-.23-.25-.62-.37-.06.04-.1.09-.13.13.2.08.42.17.76.24Z"/>
          <path class="cls-1" d="m243.6,173.35s.03,0,.04,0h-.02s-.02,0-.02,0Z"/>
          <path class="cls-1" d="m259.91,170.24l-.03-.4.26.08c-.07-.1.21-.12,1.34,0,1.75-.67-1.43-.08-1.1-.59-.45.36-1.17.63-2.33.36-.05.04-.13.08-.25.14.52.35,1.45.35,2.11.4Z"/>
          <path class="cls-1" d="m260.13,171.04c1.09-.13,1.13-.34.89-.56l-.38.04c0,.12-.16.28-.5.52Z"/>
          <path class="cls-1" d="m257.52,169.56v.02s.06,0,.06,0c-.02,0-.04,0-.06-.02Z"/>
          <path class="cls-1" d="m258.04,169.7c-.15-.03-.3-.08-.46-.13h-.05c.06.11.16.2.26.27.12-.06.2-.11.25-.14Z"/>
          <path class="cls-1" d="m259.91,170.24c.43.02.74.11.73.27l.38-.04c-.25-.22-.8-.44-.88-.55l-.26-.08.03.4Z"/>
          <path class="cls-1" d="m263.64,170.64c.47-.05.94-.11,1.41-.15-.47-.2-.95-.37-1.43-.56l.02.71Z"/>
          <path class="cls-5" d="m250.38,173.09c.71.04.79.52,2.69.46-1.94-.16-.45-.66-2.69-.46Z"/>
          <polygon class="cls-1" points="259.22 172.86 259.38 172.71 256.42 172.61 259.22 172.86"/>
          <path class="cls-1" d="m281.56,174.82c.14-.11.08-.24-.08-.39-.21.06-.25.18.08.39Z"/>
          <path class="cls-1" d="m281.3,174.3c.07.05.13.09.18.13.05-.02.13-.02.2-.03-.12-.04-.25-.07-.38-.11Z"/>
          <path class="cls-1" d="m283.54,173.63l-.13-.16s.05.1.13.16Z"/>
          <path class="cls-1" d="m275.53,171.65l-.59-.29c-.04.12.11.26.37.41.06-.05.12-.09.21-.12Z"/>
          <path class="cls-1" d="m283.54,173.63l.39.48c.2.04.38.07.54.07-.21-.02-.37-.03-.5-.02l.31.38-.71-.12c.15.27.78.66.56.76,0,.02.02.04.02.06,3.91.89-.7-.93,1.93-.69-.75,0-2.11-.59-2.52-.92Z"/>
          <path class="cls-1" d="m280.75,173.97l.32.04c.46-.28-.93-.73-2.1-1.1-1.17-.35-2.15-.59-.81-.68l-.18-.2c-.33.04-.28.37-1,.34l-1.03-.52c-.16.01-.29.02-.4.03.59.3,1.55.63,2.54.97.99.34,1.98.78,2.67,1.11Z"/>
          <path class="cls-1" d="m283.56,174.41c-.85-.17-1.72-.23-2.58-.35.04-.02.05-.04.08-.05l-.32-.04c.22.11.41.22.56.32.13.03.26.07.38.11.75-.09,2.37.31,2.43.77.22-.1-.4-.49-.56-.76Z"/>
          <path class="cls-1" d="m284.46,174.18c-.16,0-.34-.03-.54-.07l.04.05c.13,0,.28,0,.5.02Z"/>
          <path class="cls-1" d="m275.94,171.85l-.41-.21c-.09.02-.16.07-.21.12.06.03.14.08.22.12.11,0,.25-.02.4-.03Z"/>
          <path class="cls-1" d="m278.78,172.21c-.43-.17-.65-.2-.8-.18l.18.2c.17-.01.37-.02.61-.02Z"/>
          <path class="cls-1" d="m280.47,172.84c1.37.36,2.92-.21,2.36-.14-.74-.14-1.49-.19-2.11-.33-.14.04-.34.08-.57.11l.31.36Z"/>
          <path class="cls-1" d="m279.71,171.94l.12.14.12.02c-.09-.05-.17-.1-.24-.16Z"/>
          <path class="cls-1" d="m280.73,172.37c-.3-.07-.56-.15-.78-.27l-.12-.02.33.39c.22-.03.42-.07.57-.11Z"/>
          <path class="cls-1" d="m268.21,172.17l.52.09c-1.82-.55-2.3.19-3.4.26.51.27,1.47.5,2.38.74.73.06,1.59.08,1.84.07,0-.02.02-.03.01-.06.11.04.07.05-.01.06,0,.27-.33.28-.78.23.18.06.36.12.51.18-.48.17-1.04.21-1.59.24.29.12.6.25.98.4.37-.77,2.22-.18,3.45-.56-.59-.29-1.61-.56-2.46-.85-.85-.27-1.55-.5-1.45-.8Z"/>
          <path class="cls-1" d="m269.55,173.33c-.25,0-1.11-.01-1.84-.07.38.1.74.2,1.06.3.45.06.78.04.78-.23Z"/>
          <path class="cls-1" d="m269.57,173.27s-.01.04-.01.06c.09,0,.12-.02.01-.06Z"/>
          <path class="cls-1" d="m269.28,173.74c-.15-.06-.33-.12-.51-.18-.44-.06-.99-.22-1.47-.33-.41-.04-.71-.09-.66-.12.17.01.41.06.66.12.12.01.27.02.41.03-.91-.24-1.87-.48-2.38-.74-.27.01-.57-.01-.95-.08.81.34,1.34.65,1.89.9h.19s.02-.03.01-.06c.12.03.09.05-.01.06,0,.03-.02.05-.02.07.37.18.77.35,1.25.56.55-.02,1.11-.07,1.59-.24Z"/>
          <path class="cls-1" d="m266.64,173.1s.25.08.66.12c-.25-.06-.49-.11-.66-.12Z"/>
          <path class="cls-1" d="m268.77,173.56c-.32-.1-.68-.2-1.06-.3-.14-.01-.29-.02-.41-.03.48.11,1.03.27,1.47.33Z"/>
          <path class="cls-1" d="m266.45,173.42s.02-.04.02-.07c-.04,0-.11,0-.17,0,.05.02.1.04.14.07Z"/>
          <path class="cls-1" d="m266.47,173.35h-.19s.02,0,.02,0c.06,0,.13,0,.17,0Z"/>
          <path class="cls-1" d="m266.48,173.29s-.01.04-.01.06c.1-.01.13-.03.01-.06Z"/>
          <path class="cls-5" d="m283.59,175.28c2.61,1.07-1.46.28,1.52,1.16.6-.27-.19-.74-1.52-1.16Z"/>
          <path class="cls-1" d="m314.56,189.95l.31.18c-.25-.57-.54-1.1-.82-1.65l-.31-.16c.28.55.56,1.08.83,1.63Z"/>
          <path class="cls-1" d="m290.77,176.39l-.28-.29c-1.61-.79,1.21-1.09-1.99-1.46,1.07.81-.23.92,2.27,1.75Z"/>
          <path class="cls-5" d="m293.66,177.64c-.11-.05-.18-.08-.28-.12.52.48,1.36.99,2.04,1.04-2.45-.95-.6-.99-1.82-1.77-.64-.2-.78-.06-.65.21.09.09.22.19.42.3l.29.34Z"/>
          <path class="cls-8" d="m293.38,177.52c.1.04.17.07.28.12l-.29-.34c-.2-.11-.33-.21-.42-.3.07.15.23.33.44.52Z"/>
          <path class="cls-1" d="m309.09,184.06c.33.23.74.48,1.3.7-.32-.2-.87-.51-1.3-.7Z"/>
          <path class="cls-1" d="m317.59,191.97c.29.06.11-.17-.2-.49.13.23.19.39.2.49Z"/>
          <path class="cls-1" d="m316.94,190.32l-.79-.31.33.32c.03-.08.15-.1.46-.01Z"/>
          <path class="cls-1" d="m316.49,190.34l-.33-.32-1.24-.49c.35.52-.15.54,2.27,2.3.19.08.31.13.4.15,0-.1-.07-.26-.2-.49-.39-.42-.97-.97-.9-1.15Z"/>
          <path class="cls-1" d="m313.95,188.66c.27.27.58.55.82.81l.14.06c-.12-.2-.4-.44-.96-.86Z"/>
          <path class="cls-1" d="m308.54,183.88c.12.01.3.07.54.17-.21-.15-.39-.3-.56-.43-.07.07-.06.16.02.26Z"/>
          <path class="cls-1" d="m310.43,187.34c.74.35,1.71.95,2.33,1.2l-.86-1.25c-1.52-.58-1.81-.38-1.47.05Z"/>
          <path class="cls-1" d="m304.75,182.03c.41.14.78.23,1.15.31-.43-.26-.88-.49-1.13-.68h-.79c.32.11.57.24.77.37Z"/>
          <path class="cls-1" d="m302.73,183.21c2.42.94.8-.22.14-.89-.29-.04-.56-.09-.85-.17.52.43,1.23.94.71,1.07Z"/>
          <path class="cls-1" d="m313.11,186.8c.3.26.56.55.72.85.82.37.66.14.3-.2-.38-.2-.67-.41-.93-.6-.04-.02-.06-.03-.1-.05Z"/>
          <path class="cls-1" d="m310.79,185.75c.12-.03.22-.05.32-.06-.13-.05-.29-.12-.47-.21.07.09.12.18.15.27Z"/>
          <path class="cls-1" d="m313.21,186.85c.22.11.46.25.69.39-.57-.51-1.25-1.07-.02-.35-2.15-1.87-1.87-1.33-2.11-1.14.47.17.8.61,1.44,1.1Z"/>
          <path class="cls-1" d="m303.59,180.9c.63.29.36.3.15.35,1.11.48.8.04.87-.13-.77-.4-1.36-.59-1.83-.72.3.2.52.38.63.51l.18-.02Z"/>
          <path class="cls-1" d="m305.45,183.73c-.26-.18-.53-.38-.79-.53-.35.72.62,1.31,1.76,1.92-.46-.57-1.83-1.46-.96-1.39Z"/>
          <path class="cls-1" d="m306.34,184.2c-.02.06.01.15.09.26-.06-.19.19-.24.88-.09-.2-.08-.41-.15-.63-.2-.11.05-.22.05-.35.03Z"/>
          <path class="cls-1" d="m307.31,185.39c.19.2.33.37.39.49.3.2.58.4.81.61-.02-.03-.03-.05-.04-.08-.4-.35-.81-.71-1.16-1.02Z"/>
          <path class="cls-1" d="m310.63,186.81c-.75-.44-1.54-1.3-2.49-1.97l1.05,1.38c.53.42,1.02.78,1.43.58Z"/>
          <path class="cls-1" d="m308.87,186.89c.12.17.21.34.24.52l-.32-.15.91,1.19c.63-.04.39-.48-.18-1.06-.25-.17-.47-.33-.65-.5Z"/>
          <path class="cls-1" d="m301.57,181.63s0,.03,0,.05c.04.02.08.04.12.06-.06-.04-.1-.07-.12-.1Z"/>
          <path class="cls-1" d="m305.64,183.4c.23.18.46.36.68.51h.03c-.25-.19-.48-.36-.7-.51Z"/>
          <path class="cls-1" d="m301.41,179.68l.77-.03c-1.76-.96-1.09-.28-1.3-.14.17.04.34.1.53.17Z"/>
          <path class="cls-1" d="m302.17,181.03l.5-.05c.19-.15.21-.35-.22-.66-.69-.14-1.26-.19-2.22-.6l.96-.04c-.12-.05-.26-.1-.4-.16-.14.02-.39-.08-.94-.3.43-.12-1.59-1.33-2.69-1.41,4.57,1.47.18,1.53,1.12,2.05-.22-.06-.56-.27-.96-.46.17.19.53.42,1.3.76-.63-.08-1.37-.53-1.91-1.01-.01,0-.02,0-.02,0,2.22,1.9,2.81.54,5.34,2.11.14-.06.29-.11.43-.17-.1-.03-.19-.06-.28-.08Z"/>
          <path class="cls-1" d="m298.62,180.18c-.77-.34-1.13-.58-1.3-.76-.2-.09-.4-.18-.62-.25.55.48,1.28.93,1.91,1.01Z"/>
          <path class="cls-1" d="m314.14,187.45c-.07-.07-.15-.14-.23-.22-.23-.14-.47-.28-.69-.39.25.2.55.4.93.6Z"/>
          <path class="cls-1" d="m307.31,185.39c-.46-.42-.82-.73-.88-.93-.08-.11-.11-.2-.09-.26-.27-.05-.57-.24-.89-.47-.87-.07.5.82.96,1.39.44.23.88.49,1.29.76-.05-.11-.2-.29-.39-.49Z"/>
          <path class="cls-1" d="m308.51,186.49c.15.13.26.27.36.4.18.17.4.33.65.5-.29-.3-.66-.64-1.05-.98.01.03.02.06.04.08Z"/>
          <path class="cls-1" d="m301.41,179.68c-.19-.07-.36-.13-.53-.17-.02.01-.05.02-.08.02.14.06.27.11.4.16h.21Z"/>
          <path class="cls-1" d="m307.11,183.74c-.39-.24-.8-.44-1.21-.56.25.21.59.4,1.21.56Z"/>
          <path class="cls-1" d="m313.15,188.09c.34.23.58.4.81.57-.86-.83-1.79-1.73-2.74-2.49.1-.44,1.12-.05,1.89.62.04.02.06.03.1.05-.63-.49-.97-.93-1.44-1.1-.09.07-.27.09-.66-.05-.1.01-.2.03-.32.06-.03-.09-.08-.18-.15-.27-.44-.21-1.03-.54-1.87-1.08-.4-.41-.4-.53-.23-.52-.08-.1-.09-.18-.02-.26-.46-.39-.82-.61-1.42-.51h.3c1.2.61-.71.11.25.78,2.35.92,1.13,1.93,3.83,2.6-1.23.33-2.55-1.5-4.19-2.63-.66.08-1.38-.45-2.18-1.09-.4-.32-.82-.67-1.26-.97-.45-.29-.91-.54-1.39-.69-.14.05-.29.11-.43.17.2.12.4.25.63.41-.77-.17-1.05-.16-1.08-.06.02.03.06.07.12.1-.03-.01-.08-.04-.12-.06.04.11.22.28.45.47.29.08.56.13.85.17-.22-.23-.32-.41-.1-.46,1.14.11,2.05.91,2.87,1.55.22.15.46.31.7.51h-.03c.14.09.27.17.4.24,0,0-.02,0-.02,0,.21.05.42.12.63.2.18.04.35.08.59.16l.24.31c.95.67,1.74,1.53,2.49,1.97-.41.2-.9-.17-1.43-.58l.68.89c.15.05.34.13.55.23-.33-.43-.05-.64,1.47-.05l.86,1.25c.54.22.82.21.39-.45Z"/>
          <path class="cls-1" d="m303.74,181.25c-.16.04-.29.11.11.36l.14.05h.79c-.22-.17-.27-.32.03-.43-.07-.04-.13-.07-.2-.11-.07.17.23.61-.87.13Z"/>
          <path class="cls-1" d="m302.68,180.98l.73-.07c-.11-.14-.33-.32-.63-.51-.11-.03-.21-.05-.32-.07.43.3.41.5.22.66Z"/>
          <path class="cls-1" d="m305.88,183.17l.91-.04c-.14-.28-.49-.55-.88-.78-.37-.09-.74-.18-1.15-.31.59.38.73.79,1.13,1.14Z"/>
          <path class="cls-1" d="m306.79,183.12l-.91.04s.01.01.02.02c.41.12.81.32,1.21.56.12.03.24.05.37.09-.06.02-.13.02-.19.03,1.64,1.13,2.96,2.96,4.19,2.63-2.7-.68-1.48-1.68-3.83-2.6-.96-.66.95-.17-.25-.79h-.3c-.09.03-.18.05-.29.08,0-.02-.02-.03-.03-.05Z"/>
          <path class="cls-1" d="m292.73,178.13c.59.39.94.75.69.91l.49-.37c-.29-.14-.52-.28-.74-.4-.16-.06-.31-.1-.45-.14Z"/>
          <path class="cls-1" d="m290.5,176.7l-1.3.12c.57-.1,2.25.48,3.31,1.18h.22c-.81-.57-1.11-1.01-2.22-1.29Z"/>
          <path class="cls-1" d="m292.72,177.99h-.22c.08.06.15.1.22.15.14.04.29.08.45.14-.17-.1-.32-.2-.45-.29Z"/>
          <path class="cls-1" d="m296.48,179.76c.14.11.3.22.43.33-.13-.16-.28-.26-.43-.33Z"/>
          <path class="cls-1" d="m295.57,179.7c.08-.02.17-.04.25-.05-.44-.35-1.05-.68-1.67-.97-.09-.01-.17-.01-.25,0,.35.53,1.57,1.12,2.61,1.73-.02-.07-.05-.14-.11-.22-.29-.17-.58-.34-.83-.49Z"/>
          <path class="cls-1" d="m296.48,179.76c-.41-.29-.86-.6-1.31-.78.25.18.52.43.88.67.14.01.29.04.43.11Z"/>
          <path class="cls-1" d="m296.76,180.39l-.12.09c1.1.62,1.99,1.15,1.42,1.42.74.02.72-.19.34-.49-.27-.17-.53-.33-.75-.5-.28-.16-.58-.33-.88-.51Z"/>
          <path class="cls-1" d="m294.16,178.68c.62.29,1.23.61,1.67.97.07,0,.15,0,.22,0-.36-.25-.63-.49-.88-.67-.37-.16-.72-.26-1.01-.29Z"/>
          <path class="cls-1" d="m296.41,180.19c.06.08.1.15.11.22l.12.07.12-.09-.36-.2Z"/>
          <path class="cls-1" d="m298.4,181.4c-.18-.15-.44-.32-.75-.5.22.17.47.33.75.5Z"/>
          <path class="cls-2" d="m304.75,182.03c-.2-.13-.45-.25-.77-.37h-.17c.36.16.66.28.94.37Z"/>
          <path class="cls-2" d="m303.42,181.12c.12.05.22.09.31.13.21-.05.48-.07-.15-.35l-.18.02c.08.1.11.18.02.21Z"/>
          <path class="cls-2" d="m302.17,181.03c.09.02.19.05.28.08.09-.04.16-.09.22-.13l-.5.05Z"/>
          <path class="cls-2" d="m305.9,183.18s-.02,0-.04-.01h.02c-.4-.35-.54-.76-1.13-1.14-.28-.09-.57-.21-.94-.37h.17s-.14-.05-.14-.05c-.4-.25-.27-.31-.11-.36-.09-.04-.19-.08-.31-.13.09-.02.06-.1-.02-.21l-.73.07c-.06.05-.13.09-.22.13.47.15.94.4,1.39.69.44.31.86.66,1.26.97.8.64,1.53,1.16,2.18,1.09-.06-.04-.12-.08-.18-.12-.61-.16-.96-.35-1.21-.56Z"/>
          <path class="cls-2" d="m307.11,183.74c.06.04.12.08.18.12.06,0,.13-.01.19-.03-.13-.03-.26-.06-.37-.09Z"/>
          <path class="cls-2" d="m301.41,179.68s1.14.85,2.28,1.7c.57.42,1.1.9,1.52,1.23.41.34.68.56.68.56h-.02s-.27-.22-.67-.56c-.41-.33-.94-.81-1.51-1.23-1.14-.85-2.26-1.7-2.27-1.7Z"/>
          <path class="cls-1" d="m320.39,194.82h0s-.03-.03-.03-.03c0,.01.01.02.02.03Z"/>
          <path class="cls-1" d="m321.11,194.08c-.52-.09-.16.38.27.88.42.51.89,1.07.65,1.06.15.14.3.28.44.38-.24-.96-.68-1.65-1.36-2.32Z"/>
          <path class="cls-1" d="m317.86,190.86c.71.94,1.1,1.7,1.51,2.39l1.64.74c-.81-.78-1.79-1.7-3.16-3.13Z"/>
          <path class="cls-1" d="m321.11,194.08l-.09-.09-1.64-.74c.3.51.6,1,.99,1.54l.03.03c.18-.44.93.49,1.64,1.2.23.01-.24-.54-.65-1.06-.43-.5-.79-.98-.27-.88Z"/>
          <path class="cls-1" d="m325.02,196.93c.36.39.69.82,1.03,1.24-.34-.68-.7-1.35-1.08-2,1.55,2.57-2.31-1.66-1.89-.49.72.23,2.48,2.8,1.95,1.25Z"/>
          <path class="cls-5" d="m311.83,188.92c.56.75.47.58.57.48-.17-.16-.36-.32-.57-.48Z"/>
          <path class="cls-5" d="m313.64,189.94c-.35-.69-1.26-.82-1.96-1.27.24.23.49.47.74.71.11-.06.38-.03,1.21.55Z"/>
          <path class="cls-8" d="m311.83,188.92c.21.16.4.32.57.48,0,0,.02-.01.03-.02-.25-.24-.5-.48-.74-.71l-.08-.05c.09.12.16.22.23.3Z"/>
          <path class="cls-1" d="m329.66,202.48c.08.11.16.23.23.33l-.22-.35-.02.02Z"/>
          <path class="cls-1" d="m329.14,201.6c.17.34.34.62.52.88l.02-.02-.54-.86Z"/>
          <path class="cls-1" d="m329.89,202.81l.96,1.55c-.13-.61.82-.04,1.03,0-.63-.28-1.34-.72-1.99-1.55Z"/>
          <path class="cls-1" d="m179.98,223.43c.03-.17.02-.27-.03-.31-.31.35-.61.71-.91,1.06.24-.21.53-.46.94-.75Z"/>
          <path class="cls-1" d="m177.3,224.99c.11-.27.19-.43.27-.63l-.53,1.1c1.06-.21.97-.36,2-1.27.3-.35.61-.7.91-1.06-.36-.3-2.16,2.37-2.65,1.87Z"/>
          <path class="cls-5" d="m174.5,235.56c-.14.29-.24.6-.36.9l.11-.15c.1-.21.2-.52.25-.75Z"/>
          <path class="cls-8" d="m174.25,236.31l-.11.15-.03.07s.09-.13.13-.22Z"/>
          <path class="cls-1" d="m177.66,224.18s-.01,0-.01,0c-.02.04-.05.11-.07.16l.08-.17Z"/>
          <path class="cls-5" d="m222.59,176.89c.51-.2,1.26-.39,1.39-.38-.24-.07-.75.11-1.39.38Z"/>
          <path class="cls-1" d="m189.59,208.02s-.04.04-.07.06l.28.28-.21-.34Z"/>
          <path class="cls-1" d="m347.69,244.26c.14,2.68.47,4.38.59,6.45.16.07.33.11.49.13-.27-2.18-.46-4.32-.95-6.74l-.14.15Z"/>
          <path class="cls-1" d="m342.36,217.15c.08,1.12.7,1.64.95,2.65,2.51,3.43,4.64,7.58,6.41,12.01.93,2.2,1.65,4.51,2.41,6.8.65,2.32,1.36,4.64,1.87,6.96.45-.94.76-1.78.88-2.18v-.09c-.18.12-.38.16-.63.08-1.82-5.23-3.76-10.99-6.28-16.48-2.5-5.48-5.58-10.67-9.08-14.67-.31-.9-.94-1.3-1.08-2.34-.16.35-1.53-1.2-2.59-2.26-.52-.54-.99-.93-1.19-.92-.2.01-.08.4.44,1.52.25.46.47.92.66,1.37.43.45.89.78,1.33.99-.19-.05-.85-.48-1.06-.33,1.21,3.29,1.05,6.19,3.15,9.23.68,1.23,1.44,2.6,2.2,3.97-.27-1.32-.38-2.65-.58-4.06-.24-1.39-.59-2.83-1.25-4.38-1-2.48-.22-1.81.87-.58,1.04,1.26,2.37,3.08,2.57,2.72Z"/>
          <path class="cls-1" d="m336.46,210.59c-.44-.21-.9-.54-1.33-.99.09.23.18.44.27.66.22-.15.88.28,1.06.33Z"/>
          <path class="cls-1" d="m343.3,219.8c-.25-1-.87-1.53-.95-2.65-.21.36-1.53-1.46-2.57-2.72-1.1-1.23-1.88-1.9-.87.58.66,1.55,1.02,3,1.25,4.38.2,1.41.31,2.75.58,4.06.74,1.43,1.48,2.89,2.14,4.24.6,1.38,1.12,2.65,1.49,3.69l-.19-.1c1.19,2.29,1.78,4.36,2.21,6.35.22,1,.49,1.95.77,2.93.27.98.63,1.96,1.15,2.98l-.47.55c.49,2.42.68,4.56.95,6.74,1.9.24,4.14-2.86,5.23-5.28-.51-2.32-1.22-4.64-1.87-6.96-.76-2.3-1.49-4.6-2.41-6.8-1.77-4.42-3.9-8.58-6.41-12.01Z"/>
          <path class="cls-2" d="m202.42,195.33l-.13.13c.66-.47,1.21-.79.68.02.88-1.02.41-.71.78-1.49-.15.15-.3.3-.45.45-.29.29-.58.59-.88.89Z"/>
          <path class="cls-2" d="m203.75,193.98s0,0,0-.02l-.46.47c.15-.15.31-.31.45-.45Z"/>
          <path class="cls-2" d="m202.42,195.33l-.14.14h0c.05-.05.09-.1.13-.14Z"/>
          <path class="cls-1" d="m228.95,176.44c.77-.08,1.56-.16,1.91-.02,1.61-1.03,1.44-1.3,1.82-1.89l-1.82.29,1.42.21c-.84.24-1.66.37-2.44.49-.53.39-.81.69-.88.92Z"/>
          <path class="cls-1" d="m227.19,176.19c-.13.24,0,.34.28.37l.12-.53c-.13.05-.27.1-.4.16Z"/>
          <path class="cls-1" d="m234.53,173.29c.13-.34.39-.76-.37-.81l-.3.95c.07-.05.13-.09.21-.15.18,0,.32,0,.46,0Z"/>
          <path class="cls-1" d="m240.91,172.07c-.11-.13-.43-.22-1.11-.23-1.05.65-1.32,1-1.5,1.29l.56-.18c-1.28.58-.45.6.4.64.79-.56,1.71-1.09,1.7-1.42-.2-.02-.43-.02-.72-.02.27-.04.47-.06.67-.08Z"/>
          <path class="cls-1" d="m238.08,173.48c-.25.32-.74.69-2.43,1.57-1-.2-1.18-.64.38-1.58-.28.08-.49.12-.68.16-.05.4-1.13,1.08-1.96,1.77.95.12,3.77-.72,4.74-.63,0-.03.03-.06.04-.09-2.08.18,1.06-1.19-.08-1.19Z"/>
          <path class="cls-1" d="m238.56,174.15c.09-.09.2-.18.31-.27-.18.03-.35.06-.5.08l.19.18Z"/>
          <path class="cls-1" d="m240.24,172.15c.29,0,.52,0,.72.02,0-.04-.02-.07-.05-.1-.2.02-.41.04-.67.08Z"/>
          <path class="cls-1" d="m238.86,172.95l-.56.18c-.07.12-.13.23-.22.34,1.14,0-2,1.38.08,1.19.07-.17.21-.34.4-.52l-.19-.18c.15-.02.32-.05.5-.08.12-.09.25-.19.39-.29-.85-.05-1.68-.06-.4-.64Z"/>
          <path class="cls-1" d="m235.34,173.63c-.9.18-.92-.04-.82-.34-.13,0-.28,0-.46,0-.08.06-.14.1-.21.15l-.31.99-.88.1c-.38.59-.2.85-1.82,1.89.04.02.08.03.11.06l2.12-1.32c-.03.14.09.21.31.24.83-.68,1.91-1.37,1.96-1.77Z"/>
          <path class="cls-1" d="m228.95,176.44c.08-.23.35-.53.88-.92-.8.12-1.56.24-2.25.52l-.12.53c.34.04.9-.06,1.48-.13Z"/>
          <path class="cls-1" d="m199.01,198.24c-.15.18-.31.37-.46.55.39-.25.8-.52,1.23-.77.39-.42.77-.86,1.18-1.25-.57.26-1.18.74-1.95,1.47Z"/>
          <path class="cls-1" d="m184.91,199.57c-.14.21-.29.41-.42.61l.54-.33c-.12-.08-.14-.18-.11-.29Z"/>
          <path class="cls-1" d="m183.45,217.49c.11-.25.23-.56.36-.97-.14.13-.29.25-.43.36-.09.12-.18.22-.27.34l.34.27Z"/>
          <path class="cls-1" d="m182.93,218.31c.13-.13.25-.29.38-.53-.15.19-.28.37-.38.53Z"/>
          <path class="cls-1" d="m187.55,211.35c.11.01.21.06.28.19-.61.99-.99,1.09-1.44,1.33.19-.07.33-.01.45.06,1.03-1.16,1.26-1.81,1.35-2.34-.22.25-.44.5-.65.75Z"/>
          <path class="cls-1" d="m229.64,177.17c-.62.57-1.31.01-2.88,1.02.62.07,2.31-.41,3.54-.59.11-.19-.1-.22-.5-.28,3.51-.86-1.08,1.35,1.75.92-.38.14-.73.27-1.06.39l-.04.02c-.73.16-1.36.27-1.75.73-1.78.84-3.21,1.6-4.41,2.44-1.21.82-2.25,1.55-3.24,2.37-2.01,1.57-4,3.06-7.3,4.95,2.38-2.19,4.51-4.37,8.85-6.82.4-.51,1.08-.68,1.84-.93.41-.14.85-.31,1.29-.58-.05.01-.09.02-.14.03-3,.76,1.75-2.13-1.95-.83.44.02.66.04.56.25-1.28.38-3.15.9-3.8.92,1.68-1.28,2.51-.54,3.12-1.4-3.51.68-3.66.07-4.95-.6-.96.67-1.6,1.12-1.46,1.34-1.64.66-2.07.74-1.82.04-.11-.06,0-.17.2-.29-1.97,1.1-4.77,3.01-5.02,1.95-1.49,1.11-2.88,1.91-4.15,2.76l.24-.87c3.89-2.15,6.85-3.26,11.06-5.73.08.51.79.36,1.71-.03.92-.38,2.09-.93,3.03-1.36-.19.09-.3.19-.21.25-.29.6.12.62,1.65.07-.11-.22.5-.58,1.44-1.1.37.23.63.45.92.62l-1.6.33,1.57.15c-2.02.65-3.89.86-5.44,1.66-.49,1.07,3.45-.51,4.12-.02l2.21-1.55c-.04.49,1.23.1,2.63-.24Zm-13.89,2.96c-.08.04-.18.09-.26.14.08-.05.18-.09.26-.14.68-.33,1.23-.55,1.49-.49-.13,0-.94.25-1.49.49Z"/>
          <path class="cls-1" d="m173.09,236.64c-.29.29-.58-.19-1.01.31.09.64.25,1.23.55,1.74.06-.27.12-.48.17-.67-.05.02-.11.04-.17.06l.4-1.27c.02-.06.04-.13.05-.18,0,0,.01,0,.01,0l-.06.19c-.06.22-.12.42-.19.73.03.02.07.03.11.03.45-1.11.81-.33,1.55-2.03l.84-1.92-.44.42c-.96,2.26-1.13.3-1.81,2.58Z"/>
          <path class="cls-1" d="m189.52,208.08l-.15-.16.05.25s.06-.06.1-.09Z"/>
          <path class="cls-1" d="m176.13,229.2l.55-.47c.11-.28.21-.57.31-.9-.04-.13-.09-.22-.15-.29-.19.28-.42.77-.71,1.66Z"/>
          <path class="cls-1" d="m188.86,195.58l-.7.75c1.58-1.08.31,1.54,2.86-1.08.13-.68.25-1.39.41-2.05l1.57-.51c-.51.63-.76.95-1.24,1.34.18-.15.34-.27.5-.39h0c.44-.36,1.54-1.36,1.4-1.74,2.08-1.77.45.64,1.89-.35.36-.3.71-.56,1-.75l-.06-.81c.99-.06,2.91-2.07,4.4-2.35l-.11-.39c2.63-.95-.54.62-.79,1.64,1.07-.68,2.09-1.32,3.08-1.95-.97.01-.97-1.19-3.54.58.47-.31.73-.58,1.24-1.11l-1.47.32c-.2.61-.41,1.19-.59,1.81-2.54,2.16-1.15-.12-2.68.72l.71-.62c-1.65,1.52-1.98.94-3.04,1.5.45.94-1.39,1.53-.87,2.01l-1.47.7.24-.29c-1.42.01-2.13,1.65-3.62,2.87-.5.57-.95,1.15-1.37,1.75.59-.2,1.1-.34,2.25-1.6Z"/>
          <path class="cls-1" d="m185.8,198.29c-.16.23-.31.45-.47.68.18-.21.37-.44.47-.68Z"/>
          <path class="cls-1" d="m197.55,190.75c-.07-.39-.46-.3-.99.04v.02c-.45.36-.76.57-1,.73-.42.39-.87.81-1.3,1.2.51.05.82.37,1.4.26.57-.12,1.45-.64,3.16-2.23l.21-1.21c.25-.18.47-.34.72-.51l-1.1-.07-1.09,1.77Z"/>
          <path class="cls-1" d="m173.04,236.82l-.4,1.27c.06-.02.12-.04.17-.06.05-.17.1-.32.15-.44-.04,0-.08,0-.11-.03.07-.31.13-.5.19-.73Z"/>
          <path class="cls-1" d="m173.09,236.64c-.01.05-.03.13-.05.18l.06-.19s0,0-.01,0Z"/>
          <path class="cls-1" d="m215.75,180.12c.55-.25,1.36-.49,1.49-.49-.26-.05-.81.16-1.49.49Z"/>
          <path class="cls-1" d="m226.15,176.84l-1.6.33,1.57.15c-2.02.65-3.89.86-5.44,1.66-.49,1.07,3.45-.51,4.12-.02l2.21-1.55c-.04.49,1.23.1,2.63-.24.02-.02.05-.04.07-.07-2.2.25-2.95.12-3.57-.26Z"/>
          <path class="cls-1" d="m182.95,215.09c-.35.15-.7.3-1.03.46-.28,1.41.48.1,1.03-.46Z"/>
          <path class="cls-1" d="m213.75,189.14c-.58.34-1.2.68-1.88,1.04-1.11.61-1.77.46-2.61.44-.82,0-1.87.07-3.53,1.43-.61.64-1.28,1.28-1.98,1.93.1-.19.25-.44.52-.83-1.06.45-2.05.99-3.08,1.51l1.03.79-1.25.91c.17-.04.78-.51,1.31-.88-.44.43-.88.87-1.32,1.3-.57.26-1.18.74-1.95,1.47-.15.18-.31.37-.46.55-1.02.64-1.89,1.21-2.6,1.11l.07.63-1.63,1.03.6.37c-1.04.78-1.82,1.73-2.73,2.68-.92.94-1.82,2.01-3.05,3.13l.17.18.05.25c-1.3,1.19-1.1,1.72-1.23,2.43-.22.25-.44.5-.65.75-.32-.04-.8.35-1.37.87-.57.52-1.17,1.19-1.84,1.67.06.43-.16,1.49.62.35-1.29,2.23-1.66,2.18-1.99,2.04-.34-.15-.62-.39-1.59,1.55l.85-.55-.73,1.19c.49-.71,1.19-1.06,1.86-1.58-.09.12-.18.22-.27.34l.34.27c-.05.11-.1.21-.14.29-.15.19-.28.37-.38.53-.25.26-.52.39-.87.75-.36.35-.78.93-1.29,2.1-.04-.96-.8-.92-1.98,1.41l.99-.71c-1.34,2.31-1.16.28-2.13,2.33-.47.35-.68-1.01-2.01,1.87-.04.42-.05.71-.03.95l-.17.16-1.36,1.79,1.54-1.85c.14,1.15.79-.15,1.22.44-.19.28-.42.77-.71,1.66l.55-.47c-1.12,2.81-2.55,3.5-3.51,7.04.56-.59,1.16-1.15,1.74-1.71-.96,2.26-1.13.3-1.81,2.58-.29.29-.58-.19-1.01.31-.06-.43-.09-.88-.1-1.34.2-.46.46-.9.71-1.31,0,.07.02.06.02-.03.5-.81,1-1.51,1.41-2.05l-.08.71c.21-.48.25-1.02.4-1.73.18-.7.48-1.57,1.18-2.73-.83-.08-.8,2.32-1.63,2.25.02.25.05.5.08.75-.56,1.68-1.03,1-.88.86-.35.62-.47,1.21-.5,1.59-.25.28-.44.41-.47.13-.07.23-.15.45-.23.68.03-.6.06-1.19.05-1.78.14.11.31.16.56-.2l.14-.76c-.34.46-.55.4-.73.32-.01-.16-.02-.33-.04-.49.51-1.54.87-2.36,1.26-3.3.41-.93.81-1.98,1.82-3.8-.68.04-.55-1.54-.07-3.58.53-2.01,1.36-4.51,1.99-6.24l1.47-1.73c1.26-3.66,3.02-8.25,6.04-12.98l.54-.33c-.12-.08-.14-.18-.11-.29.14-.2.28-.39.41-.59.18-.21.37-.44.47-.68.27-.37.54-.74.81-1.12.59-.2,1.1-.34,2.25-1.6l-.7.75c1.58-1.08.31,1.54,2.86-1.08.13-.68.25-1.39.41-2.05l1.57-.51c-.51.63-.76.95-1.24,1.34.18-.15.34-.27.5-.39-.08.65.31.53.89.08l.12.29c-1.58.47-3.42,2.9-4.51,3.05l.15.87c-.29.25-.62.58-.97.96-1.47,1.23.05-1.56-2.04.59.2.39-.9,1.6-1.3,2.07,0,.77.45.51,1.07-.15.64-.65,1.5-1.67,2.27-2.51.24-.2.54-.48.97-.94v-.02c.53-.42.95-.56,1.07-.15l1-2.03,1.47-.06c-.33-1.03,3.14-3.2,1.1-2.3.22-.19.45-.41.7-.63.51.05.82.37,1.4.26.57-.12,1.45-.64,3.16-2.23l.21-1.21c.25-.18.47-.34.72-.51l.25.02c0-.06,0-.13,0-.19,1.07-.68,2.09-1.32,3.08-1.95.53-.02,1.39-.34,3.17-1.74l.06-.22c1.27-.85,2.67-1.65,4.15-2.76.25,1.06,3.05-.86,5.02-1.95-.2.13-.31.24-.2.29-.25.7.17.62,1.82-.04-.14-.22.5-.67,1.46-1.34,1.29.67,1.45,1.28,4.95.6-.61.86-1.44.12-3.12,1.4.65-.02,2.51-.55,3.8-.92.1-.22-.12-.23-.56-.25,3.7-1.31-1.05,1.59,1.95.83-.39.19-.76.37-1.1.53l-.04.02c-.76.26-1.44.42-1.84.93-4.35,2.44-6.47,4.62-8.85,6.82Zm-39.99,41.05c-.5.9-.93,1.85-1.4,2.11.56-1.58.91-1.5,1.4-2.11.23-.42.45-.83.64-1.18-.25.6-.45.94-.64,1.18Zm3.44-8.46c-.53,1.12-1.33,2.34-1.52,1.7l.25.89c-.26.42-.58,1.05-1.1,1.62l1.8-2.02c-.12-.09-.23-.09-.33-.03.83-1.53,2.08-2.79,2.9-3.61-.38.02-2.02,2.21-2,1.45Zm.75-1.8l-.24.67c-.79.83-.46-1.17-1.61.68,1.22-2.41.89-.41,1.85-1.36Zm5.4-5l-.41.17c-.55.56-1.31,1.87-1.03.46.33-.16.68-.31,1.03-.46.21-.22.38-.35.41-.17Zm-1.82.63l-1.99,1.78,1.47-1.45.51-.33Zm.98-2.48c-.63.53-1.28,1.05-1.89,1.61,1.02-.88,1.46-2.05,1.89-1.61Zm3.83-2c-.47,1.47.64.17,1.54-1.03-.06-.71-1.15.83-1.54,1.03Zm8.02-9.36c-.99.97-2.08,2.1-1.52.78.36-.17,1.55-1.43,1.52-.78Z"/>
          <path class="cls-1" d="m174.12,232.2l.1-.85c-.71,2.57-1.03.17-1.44,2.48.47-.56,1.08-1.54,1.34-1.63Z"/>
          <path class="cls-1" d="m172.36,232.3c.47-.25.9-1.21,1.4-2.11-.49.61-.84.53-1.4,2.11Z"/>
          <path class="cls-1" d="m174.4,229.01c-.19.35-.42.77-.64,1.18.19-.24.39-.58.64-1.18Z"/>
          <path class="cls-1" d="m182.95,215.09l.41-.17c-.03-.18-.2-.05-.41.17Z"/>
          <path class="cls-1" d="m172.6,232.75l.14-.76c-.34.46-.55.4-.73.32.01.21.02.42.02.64.14.11.31.16.56-.2Z"/>
          <path class="cls-1" d="m172.69,234.3c-.01-.06-.01-.19,0-.38-.25.28-.44.41-.47.13-.07.23-.15.45-.23.68-.02.29-.01.58,0,.87.2-.46.46-.9.71-1.31Z"/>
          <path class="cls-1" d="m172.78,233.83c-.02.12-.04.24-.06.39,0,.03,0,.03,0,.05.5-.81,1-1.51,1.41-2.05v-.02c-.26.09-.87,1.07-1.34,1.63Z"/>
          <path class="cls-1" d="m185.89,199.47c.2.39-.9,1.6-1.3,2.07,0,.77.45.51,1.07-.15.64-.65,1.5-1.67,2.27-2.51-1.47,1.23.05-1.56-2.04.59Z"/>
          <path class="cls-1" d="m193.15,193.7l.12.29c-1.58.47-3.42,2.9-4.51,3.05l.15.87c.53-.42.95-.56,1.08-.15l1-2.03,1.47-.06c-.33-1.03,3.14-3.2,1.1-2.3-.15.13-.28.23-.41.33Z"/>
          <path class="cls-1" d="m187.93,198.88c.24-.2.54-.48.97-.94v-.02c-.3.25-.63.58-.97.96Z"/>
          <path class="cls-1" d="m175.43,227.16l-1.36,1.79,1.54-1.85s0-.06,0-.09l-.17.16Z"/>
          <path class="cls-1" d="m175.93,224.32c-.26.42-.58,1.05-1.1,1.62l1.8-2.02c-.12-.09-.23-.09-.33-.03-.11.19-.22.4-.32.6l-.05-.17Z"/>
          <path class="cls-1" d="m187.88,210.05c-.06-.71-1.15.83-1.54,1.03-.47,1.47.64.17,1.54-1.03Z"/>
          <path class="cls-1" d="m196.01,200.53l-1.63,1.03.6.37c.35-.27.71-.54,1.1-.8l-.07-.6Z"/>
          <path class="cls-1" d="m224.45,181.39c.41-.14.85-.31,1.29-.58-.05.01-.09.02-.14.03-.39.19-.76.37-1.1.53l-.04.02Z"/>
          <path class="cls-1" d="m174.22,231.34l-.1.85s.02-.01.02-.02c0,0-.02.02-.02.04l-.08.71c.21-.48.25-1.02.4-1.73.18-.7.48-1.57,1.18-2.73-.83-.08-.8,2.32-1.63,2.25.02.25.05.5.08.75-.56,1.68-1.03,1-.88.86-.35.62-.47,1.21-.5,1.59.03-.03.05-.06.09-.1.41-2.32.73.09,1.44-2.48Z"/>
          <path class="cls-1" d="m172.71,234.27s-.01.02-.02.03c0,.07.02.06.02-.03Z"/>
          <path class="cls-1" d="m174.12,232.2v.02s.02-.03.02-.04c0,0-.02.01-.02.02Z"/>
          <path class="cls-1" d="m172.71,234.27s0-.02,0-.05c.02-.15.04-.27.06-.39-.03.04-.06.06-.09.1-.02.18-.01.31,0,.38,0,0,.01-.02.02-.03Z"/>
          <path class="cls-1" d="m176.1,221.28c1.15-1.86.82.15,1.61-.68l.24-.67c-.96.95-.63-1.06-1.85,1.36Z"/>
          <path class="cls-1" d="m177.2,221.73c-.53,1.12-1.33,2.34-1.52,1.7l.25.89c.13-.21.25-.36.37-.43.83-1.53,2.08-2.79,2.9-3.61-.38.02-2.02,2.21-2,1.45Z"/>
          <path class="cls-1" d="m175.93,224.32l.05.17c.1-.2.21-.41.32-.6-.12.07-.24.22-.37.43Z"/>
          <path class="cls-1" d="m193.66,191.88c.14.39-.96,1.38-1.4,1.74h0c.99-.75,1.57-.92,2-.88.43-.39.88-.82,1.3-1.2-1.44.98.18-1.43-1.89.35Z"/>
          <path class="cls-1" d="m192.26,193.63c-.08.65.31.53.89.08l-.05-.12c.18-.08.33-.15.45-.21.22-.19.45-.41.7-.63-.42-.04-1,.13-2,.88Z"/>
          <path class="cls-1" d="m193.15,193.7c.13-.1.26-.2.41-.33-.13.06-.28.13-.45.21l.05.12Z"/>
          <path class="cls-1" d="m200.79,187.24l.11.39c-1.49.28-3.4,2.29-4.4,2.35l.06.81c.53-.33.92-.43.99-.04l1.09-1.77,1.1.07c.09-.06.18-.11.26-.17.24-1.02,3.41-2.6.79-1.64Z"/>
          <path class="cls-1" d="m199.99,189.07c0-.06,0-.13,0-.19-.08.06-.17.11-.26.17l.25.02Z"/>
          <path class="cls-1" d="m196.56,190.8v-.02c-.3.19-.65.45-1,.75.24-.16.55-.37,1-.73Z"/>
          <polygon class="cls-1" points="181.53 215.55 181.02 215.88 179.55 217.33 181.53 215.55"/>
          <path class="cls-1" d="m180.62,214.69c.61-.56,1.27-1.08,1.89-1.61-.44-.44-.87.73-1.89,1.61Z"/>
          <path class="cls-1" d="m194.36,201.72c.02-.65-1.16.61-1.52.78-.55,1.32.54.19,1.52-.78Z"/>
          <path class="cls-1" d="m202.42,195.33c.3-.3.59-.59.88-.89-.29.29-.58.59-.88.89Z"/>
          <path class="cls-1" d="m203.3,194.44l.46-.47c.1-.19.25-.44.52-.83-1.06.45-2.05.99-3.08,1.51l1.03.79-1.25.91c.17-.04.78-.51,1.31-.88l.14-.14c.3-.3.59-.59.88-.89Z"/>
          <path class="cls-1" d="m230.46,178.64c.39-.09.81-.21,1.23-.42-.05,0-.09.01-.13.02-.38.14-.73.27-1.06.39l-.04.02Z"/>
        </g>
      </g>
      <path class="cls-3" d="m158.5,266.87c0-56.06,45.44-101.5,101.5-101.5s101.5,45.44,101.5,101.5"/>
      <line class="cls-3" x1="400.13" y1="228.74" x2="458" y2="213.75"/>
      <line class="cls-3" x1="363.12" y1="164.63" x2="405.74" y2="122.72"/>
      <line class="cls-3" x1="299.01" y1="127.62" x2="314.97" y2="70.01"/>
      <line class="cls-3" x1="224.99" y1="127.62" x2="210" y2="69.75"/>
      <line class="cls-3" x1="160.88" y1="164.63" x2="118.97" y2="122.01"/>
      <line class="cls-3" x1="123.87" y1="228.74" x2="66.26" y2="212.78"/>
      <line class="cls-3" x1="405" y1="262" x2="524" y2="262"/>
      <line class="cls-3" x1="385.84" y1="190.5" x2="488.9" y2="131"/>
      <line class="cls-3" x1="333.5" y1="138.16" x2="393" y2="35.1"/>
      <line class="cls-3" x1="262" y1="119" x2="262" y2="0"/>
      <line class="cls-3" x1="190.5" y1="138.16" x2="131" y2="35.1"/>
      <line class="cls-3" x1="138.16" y1="190.5" x2="35.1" y2="131"/>
      <line class="cls-3" x1="119" y1="262" x2="0" y2="262"/>
    </g>
  </g>
</svg>